<svg width="2482" height="1349" viewBox="0 0 2482 1349" fill="none" xmlns="http://www.w3.org/2000/svg">
<path d="M2117.07 256.086L2339.83 258.2L2355.35 590.508L2427.48 585.944L2456.38 200.942L2355.35 108.845L2111.59 120.491L2101.55 71.0193H2046.78L2031.26 588.696L2138.07 585.944L2117.07 256.086Z" fill="#DBE3ED"/>
<path d="M1684.33 183.254L1714.46 0L1593.4 31.8513L1605.8 200.942L1635.03 318.849H1846.82L1873.85 359.527L1690.71 523.181V661.528L1762.82 630.381L1899.16 474.447L1963.67 292.267L1918.49 193.491L1684.33 183.254Z" fill="#DBE3ED"/>
<path d="M1348.9 87.0961L1341.61 46.7869H1289.57L1283.19 218.126L1406.76 254.441L1421.94 567.216L1495.91 562.617L1514.17 258.201L1468.06 109.416L1348.9 87.0961Z" fill="#DBE3ED"/>
<path d="M835.259 638.537H941.171L997.755 292.2L1107.21 298.611L1177.54 366.811L1192.22 502.036H1028.82L1021.5 633.066H1236.03L1268 389.801L1220.18 193.995L1144.77 153.652L1016.95 157.512L978.593 223.497L858.1 141.032H816.999V288.542L916.524 318.782L835.259 638.537Z" fill="#DBE3ED"/>
<path d="M2378.16 795.377L2323.38 903.484L2386.88 941.108L2360.53 1046.87L2255.36 1119.7L2090.58 1165.51L2089.68 1105.06L2236.19 993.97L2288.7 877.808L2259.5 830.182L2167.27 795.377L2133.49 896.134L2180.98 938.289L2118.11 1022.9L2089.68 1044.58L2086.94 799.942L1985.61 812.763L2034 1298.39H2121.62L2286.29 1232.07L2408.96 1125.94L2481.49 957.89V870.827L2378.16 795.377Z" fill="#DBE3ED"/>
<path d="M297.872 182.751L78.5228 168.52L68.4566 119.048H17.3566L10.0327 304.115H88.5555L297.872 182.751Z" fill="#DBE3ED"/>
<path d="M221.89 305.726L276.969 307.001L350.208 378.793L362.448 638.537L432.744 633.973L446.422 330.764L388.366 193.29L221.89 305.726Z" fill="#DBE3ED"/>
<path d="M186.241 525.866L147.949 389.801L150.223 354.124L73.9077 405.677L72.6035 414.739L84.0073 499.284H9.12978L0 633.973H169.821L186.241 525.866Z" fill="#DBE3ED"/>
<path d="M1784.75 1080.33L1790.14 1170.98L1864.85 1192.36L1878.02 983.196L1817.26 885.796L1619.48 872.338L1609.45 822.832H1558.32L1551.02 1007.93H1734.52L1784.75 1080.33Z" fill="#DBE3ED"/>
<path d="M1545.54 1203.1L1532.77 1337.79H1927.15L1931.53 1273.25L1663.23 1203.1H1545.54Z" fill="#DBE3ED"/>
<path d="M1285.93 818.268L1278.6 777.958H1226.57L1220.18 949.298L1349.77 997.662L1351.71 1061.03L1444.14 1087.31L1451.17 958.46L1410.27 843.641L1285.93 818.268Z" fill="#DBE3ED"/>
<path d="M1358.97 1298.39L1432.91 1293.79L1440.53 1153.73L1353.88 1132.42L1358.97 1298.39Z" fill="#DBE3ED"/>
<path d="M849.906 847.602L839.839 798.096H788.706L781.416 983.196L992.136 991.252L1005.68 1006.96L1133.83 1027.13V940.84L1050.73 857.57L849.906 847.602Z" fill="#DBE3ED"/>
<path d="M1050.73 1318.52L1120.12 1313.96L1130.76 1100L1041.77 1086.87L1050.73 1318.52Z" fill="#DBE3ED"/>
<path d="M525.08 792.155H473.946L465.719 964.401L599.823 983.196L573.136 1067.1L690.854 997.628L694.766 983.196V873.646L532.37 836.123L525.08 792.155Z" fill="#DBE3ED"/>
<path d="M552.469 1132.08L642.831 1174.24L675.337 1054.69L556.75 1118.66L552.469 1132.08Z" fill="#DBE3ED"/>
<path d="M292.219 1346.01L398.064 1349L396.259 1276.27L292.219 1346.01Z" fill="#DBE3ED"/>
<path d="M387.832 937.081L324.993 872.338H80.3287L70.296 822.866H15.5173L0 1337.79L184.335 1342.99L394.186 1192.09L387.832 937.081ZM90.3948 1202.2L80.3621 1007.93L294.093 1032.77L325.027 1202.2H90.3948Z" fill="#DBE3ED"/>
<path d="M546.281 51.2509L542.77 31.8514H490.733L488.727 85.5188L503.374 78.8062L546.281 51.2509Z" fill="#DBE3ED"/>
<path d="M583.469 77.2957L512.337 114.349L487.121 128.144L484.346 203.191L599.822 230.612L623.098 552.28L697.039 547.682L715.299 161.136L654.467 88.2372L583.469 77.2957Z" fill="#DBE3ED"/>
</svg>
