<svg width="271" height="278" viewBox="0 0 271 278" fill="none" xmlns="http://www.w3.org/2000/svg">
<path d="M270.748 200.903L246.237 50.6478L94.0997 0L0 86.3826V278L270.748 200.903Z" fill="#CAD8E9"/>
<g clip-path="url(#clip0_1568_1492)">
<path d="M98.144 197H150.744L152.829 155.071L165.365 139.617L168.702 113.735L151.995 125.018L133.423 113.735L94.7852 101.639L101.064 89.5216L113.16 98.6976L129.032 92.4412L131.754 81.5968L94.7852 67.3937L70 107.479L97.3098 146.729L98.144 197Z" fill="#0B0B0B"/>
<path d="M146.156 67.3937L131.535 58.6347L122.863 71.9817L138.626 82.0139L146.156 67.3937Z" fill="#0B0B0B"/>
<path d="M150.744 74.9672L160.337 84.0994L140.733 110.398L129.449 106.227L150.744 74.9672Z" fill="#0B0B0B"/>
<path d="M167.033 86.5141L177 100.278L153.247 121.989L146.156 110.727L167.033 86.5141Z" fill="#0B0B0B"/>
<path d="M113.577 47L126.53 56.1322L116.914 72.3988L101.064 67.3937L113.577 47Z" fill="#0B0B0B"/>
</g>
<defs>
<clipPath id="clip0_1568_1492">
<rect width="107" height="150" fill="white" transform="translate(70 47)"/>
</clipPath>
</defs>
</svg>
