<svg width="271" height="278" viewBox="0 0 271 278" fill="none" xmlns="http://www.w3.org/2000/svg">
<path d="M270.748 200.903L246.237 50.6478L94.0997 0L0 86.3826V278L270.748 200.903Z" fill="#CAD8E9"/>
<path d="M73.6707 88.6792L93.4378 104.42L72 96.5498L73.6707 88.6792Z" fill="#0B0B0B"/>
<path d="M98.4501 68.1875L108.495 86.0624L101.308 83.4456L93.4379 69.3751L98.4501 68.1875Z" fill="#0B0B0B"/>
<path d="M157.792 67L147.546 86.0625L155.396 82.4795L162.321 70.3415L157.792 67Z" fill="#0B0B0B"/>
<path d="M182.571 88.6792L162.321 101.079L184 96.5498L182.571 88.6792Z" fill="#0B0B0B"/>
<path d="M135.387 91.2959H118.7L95.1085 111.325L105.113 148.262L118.7 172.8L125.222 171.995L120.914 150.859V135.762L116.365 135.359L118.096 131.897L130.979 133.145L128.845 136.486L125.504 136.184L125.303 149.973L129.872 171.411L132.046 171.129L137.3 167.083L144.204 149.45L152.538 130.629L155.396 108.225L135.387 91.2959Z" fill="#0B0B0B"/>
<path d="M109.662 187.938L112.037 175.296L141.326 174.511L140.359 187.938H109.662Z" fill="#0B0B0B"/>
</svg>
