<svg width="271" height="278" viewBox="0 0 271 278" fill="none" xmlns="http://www.w3.org/2000/svg">
<path d="M270.748 200.903L246.237 50.6478L94.0997 0L0 86.3826V278L270.748 200.903Z" fill="#CAD8E9"/>
<path d="M219.71 123.133L168.88 123.43L142.395 93H87.0055L66.3089 119.465L47 122.816V153.246L52.3327 159.947H68.1526L69.679 141.074L92.1995 138.338L108.317 160.244L172.825 162.98C172.825 162.98 171.913 142.898 171.913 141.986C171.913 141.074 198.993 137.426 198.993 137.426L205.694 161.473L223.655 163L219.729 123.133H219.71ZM89.7611 123.331L72.1174 121.805L89.7611 102.337V123.331ZM94.3207 123.331V102.337H132.046L137.835 123.331H94.3207ZM142.692 123.331L139.044 103.547L154.567 121.507L142.692 123.331ZM218.758 142.501L205.674 135.801V127.891L210.848 126.682L218.758 137.03V142.501Z" fill="#0B0B0B"/>
<path d="M72.0974 148.171L88.2344 142.501L96.521 159.134L74.2186 166.568L72.0974 148.171Z" fill="#0B0B0B"/>
<path d="M176.948 148.171L193.085 142.501L201.372 159.134L179.07 166.568L176.948 148.171Z" fill="#0B0B0B"/>
</svg>
