<svg width="271" height="278" viewBox="0 0 271 278" fill="none" xmlns="http://www.w3.org/2000/svg">
<path d="M270.748 200.903L246.237 50.6478L94.0997 0L0 86.3826V278L270.748 200.903Z" fill="#CAD8E9"/>
<path d="M109.813 178.098L138.233 162.903L197 165.668L179.104 190.551L109.813 178.098Z" fill="#0B0B0B"/>
<path d="M124.216 65H105.527L74 97.0413L84.116 170.083L126.938 160.052L138.233 86.7752L124.216 65ZM124.13 111.872L118.579 105.979L110.242 122.01L95.4752 106.45L88.7669 119.352L84.9733 117.381L94.4464 99.1631L109.213 114.723L117.55 98.6702L127.238 108.958L124.109 111.894L124.13 111.872Z" fill="#0B0B0B"/>
</svg>
