<svg width="271" height="278" viewBox="0 0 271 278" fill="none" xmlns="http://www.w3.org/2000/svg">
<path d="M270.748 200.903L246.237 50.6478L94.0997 0L0 86.3826V278L270.748 200.903Z" fill="#CAD8E9"/>
<g clip-path="url(#clip0_1565_352)">
<path d="M76.2531 109.187L73.8259 99.8629L79.0407 87.439L93.3154 80.8813L95.4061 83.2898L80.795 92.2798L79.0407 104.012L76.2531 109.187Z" fill="#0B0B0B"/>
<path d="M58.1815 109.187L54 101.58L58.1815 84.6731L66.8808 73.2746L78.3438 65H86.3462V68.7915L73.8259 75.0154L65.8234 85.0308L61.642 95.0223L62.6994 109.187H58.1815Z" fill="#0B0B0B"/>
<path d="M178.747 109.187L181.174 99.8629L175.959 87.439L161.709 80.8813L159.618 83.2898L174.229 92.2798L175.959 104.012L178.747 109.187Z" fill="#0B0B0B"/>
<path d="M196.843 109.187L201 101.58L196.843 84.6731L188.143 73.2746L176.656 65H168.654V68.7915L181.174 75.0154L189.176 85.0308L193.358 95.0223L192.301 109.187H196.843Z" fill="#0B0B0B"/>
<path d="M76.0367 189L82.7415 175.694H165.097L178.963 189H76.0367Z" fill="#0B0B0B"/>
<path d="M147.362 98.7422L106.677 101.58L88.9656 129.146V169.041H120.086L120.807 167.61L126.07 145.29L118.404 136.729L122.249 127.715H132.775L138.038 136.276L131.814 145.29L134.072 169.041H165.097L167.476 129.146L147.362 98.7422Z" fill="#0B0B0B"/>
</g>
<defs>
<clipPath id="clip0_1565_352">
<rect width="147" height="124" fill="white" transform="translate(54 65)"/>
</clipPath>
</defs>
</svg>
