<svg width="271" height="278" viewBox="0 0 271 278" fill="none" xmlns="http://www.w3.org/2000/svg">
<path d="M270.748 200.903L246.237 50.6478L94.0997 0L0 86.3826V278L270.748 200.903Z" fill="#CAD8E9"/>
<path d="M165.045 79.205L171 55.6701H156.682L131.672 50L125.717 55.0746L117.665 56.5763L112.901 75.9427L124.422 86.0661L121.056 91.3479L117.406 90.6229L86 159.622L89.8319 206.122L127.141 190.018L149.951 97.018L145.756 96.1895L143.892 89.0177L165.045 79.1791V79.205ZM156.708 73.2501L144.203 80.7067V79.205L152.54 70.2726L156.708 73.2501ZM147.465 61.0295L149.692 63.8517L142.986 68.6156L134.779 62.9455L147.439 61.0037L147.465 61.0295ZM134.804 69.8325L141.07 78.0399L134.804 76.8489L133.613 70.2985L134.804 69.8584V69.8325ZM121.548 72.0591L128.409 70.2726L132.293 78.6095L129.6 80.7067L121.548 72.0591Z" fill="#0B0B0B"/>
</svg>
