<svg width="271" height="278" viewBox="0 0 271 278" fill="none" xmlns="http://www.w3.org/2000/svg">
<path d="M270.748 200.903L246.237 50.6478L94.0997 0L0 86.3826V278L270.748 200.903Z" fill="#CAD8E9"/>
<path d="M135.489 165.307L124.345 166.661L114.633 138.7L122.428 103.735L124.78 106.342L121.585 132.642L131.553 132.054L137.61 109.665L144.562 138.393L151.821 129.933L150.901 108.157L130.658 95.4537H140.933L164.498 102.406L160.281 88.9617L147.885 80.0415L130.351 80.9617L127.617 71.2748L116.447 61H99.8083L112.895 69.7668L118.85 92.7444L103.744 76.4121L83.1949 77.9201L72 101.204L101.316 92.131L91.3482 99.3898L92.8562 116.923L114.939 95.4537L99.8083 132.949L107.093 168.757L90.7348 170.751L75.9361 188.872L153.636 192.195L176 183.147L135.489 165.307Z" fill="#0B0B0B"/>
</svg>
