<svg width="271" height="278" viewBox="0 0 271 278" fill="none" xmlns="http://www.w3.org/2000/svg">
<path d="M270.748 200.903L246.237 50.6478L94.0997 0L0 86.3826V278L270.748 200.903Z" fill="#CAD8E9"/>
<path d="M79.2157 154.431L85.528 185H99.9494L87.9394 152.375L128.887 154.431L147.398 185H156.713L143.497 152.375L149.502 133.461L120.967 118.851L88.5305 122.35L84.9133 137.362L76.5205 130.222V117.219H66L77.7263 145.471L79.2157 154.431Z" fill="#0B0B0B"/>
<path d="M164.822 71L135.979 81.9461L134.584 108.401C134.774 110.127 161.205 135.967 161.205 135.967L187.636 116.439L189.433 90.9063L164.822 71ZM172.387 106.131L169.385 115.281H156.76L152.859 107.337L145.956 94.9726L154.373 91.7337L165.484 96.2493L173.901 91.7337L178.109 98.3061L172.411 106.155L172.387 106.131Z" fill="#0B0B0B"/>
</svg>
