<svg width="271" height="278" viewBox="0 0 271 278" fill="none" xmlns="http://www.w3.org/2000/svg">
<path d="M270.748 200.903L246.237 50.6478L94.0997 0L0 86.3826V278L270.748 200.903Z" fill="#CAD8E9"/>
<path d="M129.62 89.0197L131.64 171.317H189V87C189 87 130.509 89.0197 129.647 89.0197H129.62ZM141.227 143.795L135.626 141.775L137.915 123.14L144.512 120.851L141.227 143.795Z" fill="#0B0B0B"/>
<path d="M121.353 89.0197L119.333 171.317H62V87C62 87 120.491 89.0197 121.353 89.0197ZM109.746 143.795L115.348 141.775L113.059 123.14L106.461 120.851L109.746 143.795Z" fill="#0B0B0B"/>
<path d="M62 190.248V180.203C62 180.203 188.031 181.065 187.788 181.927C187.546 182.789 187.788 191.675 187.788 191.675L62 190.248Z" fill="#0B0B0B"/>
</svg>
