<svg width="271" height="278" viewBox="0 0 271 278" fill="none" xmlns="http://www.w3.org/2000/svg">
<path d="M270.748 200.903L246.237 50.6478L94.0997 0L0 86.3826V278L270.748 200.903Z" fill="#CAD8E9"/>
<path d="M170 81.0254L159.099 99.0959L143.477 58L132.081 100.582L125.115 58L113.69 100.582L98.5922 58L87.4293 112.27V121.451C78.7438 114.98 70 108.802 70 108.802L87.4293 159.603H94.8616L82.8534 165.082L78.0443 180.967L104.159 172.777L87.4876 202.302L114.914 197.405L123.396 176.828L151.696 204.226L153.853 176.449L135.812 162.867L163.267 154.24L152.629 147.333L165.774 137.073L169.971 81.0545L170 81.0254Z" fill="#0B0B0B"/>
</svg>
