<svg width="271" height="278" viewBox="0 0 271 278" fill="none" xmlns="http://www.w3.org/2000/svg">
<path d="M270.748 200.903L246.237 50.6478L94.0997 0L0 86.3826V278L270.748 200.903Z" fill="#CAD8E9"/>
<path d="M174 112.821L115.054 62C115.054 62 108.905 70.0751 101.546 79.8047L95.2986 62L84.6059 74.7177L94.7307 88.8676C86.137 100.252 77.889 111.315 77 112.821H174Z" fill="#0B0B0B"/>
<path d="M77 126.206V196.239L113.375 191.745V172.829H137.625L134.686 189.103L174 184.238V126.23H77V126.206ZM113.128 162.828L99.5708 167.1L95.2986 137.145H113.128V162.828ZM149.503 162.828L135.946 167.1L131.674 137.145H149.503V162.828Z" fill="#0B0B0B"/>
</svg>
