<svg width="271" height="278" viewBox="0 0 271 278" fill="none" xmlns="http://www.w3.org/2000/svg">
<path d="M270.748 200.903L246.237 50.6478L94.0997 0L0 86.3826V278L270.748 200.903Z" fill="#CAD8E9"/>
<path d="M129.257 104.825L134.821 93.1963L141.136 70.106L127.978 55L105.472 61.6211L103.218 78.8692L115.487 104.602L129.257 104.825Z" fill="#0B0B0B"/>
<path d="M117.044 118.707L119.604 113.449L124.75 118.623L125.724 114.617L129.814 117.427L130.259 109.081L114.596 108.247L117.044 118.707Z" fill="#0B0B0B"/>
<path d="M108.114 116.259L105.249 92.473L87.3331 83.4595L69 98.0926L73.4511 114.896L94.5384 134.091L107.363 129.111L108.114 116.259Z" fill="#0B0B0B"/>
<path d="M107.78 139.516L112.621 140.573L109.895 132.672L95.0669 137.819L101.271 146.582L101.66 140.74L108.392 143.577L107.78 139.516Z" fill="#0B0B0B"/>
<path d="M161.639 86.9648L143.751 96.0062L140.858 119.764L141.609 132.617L154.462 137.624L175.549 118.401L180 101.598L161.639 86.9648Z" fill="#0B0B0B"/>
<path d="M136.351 144.078L141.22 143.021L140.607 147.083L147.312 144.273L147.701 150.087L153.905 141.324L139.105 136.177L136.351 144.078Z" fill="#0B0B0B"/>
<path d="M126.725 176.933L128.311 167.001L126.976 128.082L119.91 123.519L121.69 166.64L121.245 170.813L113.289 150.504L105.777 149.948L118.63 182.052L119.576 186.586L120.661 191.9L122.08 198.827L121.078 205.754L126.364 205.031L126.948 202.11L127.504 199.467L130.342 185.585L143.222 153.481L135.683 154.01L126.725 176.933Z" fill="#0B0B0B"/>
</svg>
