<svg width="271" height="278" viewBox="0 0 271 278" fill="none" xmlns="http://www.w3.org/2000/svg">
<path d="M270.748 200.903L246.237 50.6478L94.0997 0L0 86.3826V278L270.748 200.903Z" fill="#CAD8E9"/>
<path d="M174.967 80.0261L146.342 57H87.2942L69 88.5901L99.1239 104.818L87.3276 128.877H166.436L145.776 103.652L175 80.0261H174.967ZM103.689 87.4904C101.756 87.4904 100.157 85.9242 100.157 83.9582C100.157 81.9921 101.723 80.426 103.689 80.426C105.655 80.426 107.221 81.9921 107.221 83.9582C107.221 85.9242 105.655 87.4904 103.689 87.4904ZM136.445 87.4904C134.513 87.4904 132.913 85.9242 132.913 83.9582C132.913 81.9921 134.479 80.426 136.445 80.426C138.412 80.426 139.978 81.9921 139.978 83.9582C139.978 85.9242 138.412 87.4904 136.445 87.4904Z" fill="#0B0B0B"/>
<path d="M167.269 147.238L152.474 149.104L156.173 136.475L72.8656 193.257L87.6609 191.391L83.9621 203.987L167.269 147.238Z" fill="#0B0B0B"/>
<path d="M72.8656 147.238L87.6609 149.104L83.9621 136.475L167.269 193.257L152.474 191.391L156.173 203.987L72.8656 147.238Z" fill="#0B0B0B"/>
</svg>
