<svg width="271" height="278" viewBox="0 0 271 278" fill="none" xmlns="http://www.w3.org/2000/svg">
<path d="M270.748 200.903L246.237 50.6478L94.0997 0L0 86.3826V278L270.748 200.903Z" fill="#CAD8E9"/>
<path d="M188 79.0716L180.426 68L160.644 78.1582V88.6283L130.348 116.096L120.902 108.031L106.445 110.348L97.1998 128.326L67.9504 137.86L61 161.874L72.5617 186.49L101.187 197.985L123.175 183.728L127.051 161.563L142.333 151.404L149.506 136.635L139.637 124.026L138.055 122.667L174.344 95.4005L187.978 79.0938L188 79.0716ZM95.7295 177.401L81.2719 165.082L77.5739 157.998L79.4229 154.724L103.125 173.08L95.7295 177.379V177.401ZM118.496 155.904L102.791 160.783L93.8583 150.424L98.7814 140.778L107.091 136.167L118.474 140.778V155.904H118.496Z" fill="#0B0B0B"/>
</svg>
