<svg width="271" height="278" viewBox="0 0 271 278" fill="none" xmlns="http://www.w3.org/2000/svg">
<path d="M270.748 200.903L246.237 50.6478L94.0997 0L0 86.3826V278L270.748 200.903Z" fill="#CAD8E9"/>
<path d="M89.2957 129.927L122.789 204.837L150.379 126.976L89.2957 129.927Z" fill="#0B0B0B"/>
<path d="M83.4545 95.9366C85.9401 91.9907 115.488 58 115.488 58L152.927 81.1472L131.24 124.987L83.4545 95.9366Z" fill="#0B0B0B"/>
<path d="M126.953 105.786L150.1 98.3911C150.1 98.3911 157.495 118.587 156.003 118.587C154.512 118.587 141.556 123.03 141.556 123.03L126.922 105.786H126.953Z" fill="#0B0B0B"/>
<path d="M81 113.18C81 111.689 99.2381 98.3911 99.2381 98.3911L112.536 113.18L96.7836 126.976L81 113.18Z" fill="#0B0B0B"/>
</svg>
