<svg width="271" height="278" viewBox="0 0 271 278" fill="none" xmlns="http://www.w3.org/2000/svg">
<path d="M270.748 200.903L246.237 50.6478L94.0997 0L0 86.3826V278L270.748 200.903Z" fill="#CAD8E9"/>
<path d="M199.595 112.967L172.497 108.474L169.549 105.034L187.099 87.9755L172.813 84.1496L160.949 94.9253L150.911 83.0966L146.067 58L119.286 61.1941L95.979 96.2942L98.436 110.896L131.114 115.775L134.098 119.32L131.114 122.023L75.4806 177.305H61.5809L56 194.013L68.5307 207L86.9583 197.839L84.5013 187.765L143.434 130.447L149.542 137.677L151.262 167.934L188.117 158.878L204.824 127.955L199.595 112.967Z" fill="#0B0B0B"/>
</svg>
