<svg width="271" height="278" viewBox="0 0 271 278" fill="none" xmlns="http://www.w3.org/2000/svg">
<path d="M270.748 200.903L246.237 50.6478L94.0997 0L0 86.3826V278L270.748 200.903Z" fill="#CAD8E9"/>
<path d="M158.394 107.653H143.121L118.22 98L126.94 111.081L90.8237 126.656L63.7301 107.35L79.9358 133.184L60 154.355L92.0587 140.644L123.21 154.355L115.725 164.31L145.011 158.085L160.561 158.715L148.413 134.419L158.394 107.653Z" fill="#0B0B0B"/>
<path d="M164.922 107.955L155.571 136.611L166.459 157.152L195.72 129.756L164.897 107.955H164.922ZM170.845 127.563C168.954 127.563 167.417 126.026 167.417 124.136C167.417 122.245 168.954 120.708 170.845 120.708C172.735 120.708 174.272 122.245 174.272 124.136C174.272 126.026 172.735 127.563 170.845 127.563Z" fill="#0B0B0B"/>
</svg>
