<svg width="271" height="278" viewBox="0 0 271 278" fill="none" xmlns="http://www.w3.org/2000/svg">
<path d="M270.748 200.903L246.237 50.6478L94.0997 0L0 86.3826V278L270.748 200.903Z" fill="#CAD8E9"/>
<path d="M187.511 162.162L178.148 146.197L170.718 120.593L163.011 86.4301L146.218 79L126.664 86.154L100.759 83.6689L75.1559 96.6213L61.6763 136.834L49 151.293L53.1418 168.763H67.1736L72.9469 162.438H67.1736V153.351L87.9326 140.85L98.5756 166.856H122.673V161.057L114.816 159.4L110.624 135.453L120.314 133.797L120.59 139.595L130.505 167.408L148.126 166.579L149.231 161.609L141.801 155.56L146.495 133.797L177.319 170.42L193.309 168.763L196.321 163.467L187.511 162.162Z" fill="#0B0B0B"/>
<path d="M167.957 86.4301L174.583 111.23L191.1 116.175L198.806 112.31H208.998L213.139 105.156L203.5 99.9347L200.739 88.9151L190.548 86.4301V79H182.013L179.528 85.0495L167.957 86.4301Z" fill="#0B0B0B"/>
</svg>
