<svg width="271" height="278" viewBox="0 0 271 278" fill="none" xmlns="http://www.w3.org/2000/svg">
<path d="M270.748 200.903L246.237 50.6478L94.0997 0L0 86.3826V278L270.748 200.903Z" fill="#CAD8E9"/>
<path d="M62.4407 86.6705L67.6117 84.3551L74.2235 92.9735L94.3416 84.3551L126.809 82.0654L150.94 95.2889L169.335 114.532L175.072 142.394L164.138 181.19L171.624 185.795L171.907 194.413H156.111L153.513 176.611L160.999 157.058L155.236 125.157L142.888 98.7362L120.763 90.1178L89.1706 96.7296L72.4998 103.033L61 96.1379L62.4407 86.6705Z" fill="#0B0B0B"/>
<path d="M105.687 146.434H95.7565L80.2434 163.953L88.0128 166.835L90.8942 175.453L109.855 160.943V149.881L169.618 90.6842L175.072 95.8552L183.69 70L159.558 80.6251L162.723 86.9538L105.687 146.434Z" fill="#0B0B0B"/>
</svg>
