<svg width="271" height="278" viewBox="0 0 271 278" fill="none" xmlns="http://www.w3.org/2000/svg">
<path d="M270.748 200.903L246.237 50.6478L94.0997 0L0 86.3826V278L270.748 200.903Z" fill="#CAD8E9"/>
<path d="M158.611 154.09L158.177 142.916L180.525 142.023L183 132.916L157.82 133.936L157.514 126.232L154.631 121.538L162.923 110.747L177.26 113.91L179.097 106.206L161.928 103.323L150.55 114.803L146.085 107.507L100.7 109.318L96.5931 115.798L85.6488 106.384L68.7603 110.594L71.2094 118.145L85.2406 113.859L92.6389 122.048L91.0062 124.625L91.4654 136.564L67 137.559L70.1889 146.437L91.8225 145.57L92.2817 156.846L83.812 158.325L71.6175 182.255L78.174 186.26L89.9092 168.377L95.4196 166.132L103.532 180.622L126.773 187.867L144.733 180.393L154.198 162.841L162.616 165.468L175.729 182.357L181.954 177.841L167.897 154.958L158.611 154.09Z" fill="#0B0B0B"/>
<path d="M103.762 78.2452L109.578 84.6741L108.941 84.8271L104.655 101.716L141.952 101.639L137.08 86.2047L134.758 84.8271L140.957 76.7656L152.08 79.2146L153.509 73.2195L140.192 71L129.528 81.7658L126.875 80.2096L116.288 82.9393L104.094 72.4286L90.9807 75.7196L92.8686 81.5617L103.762 78.2452Z" fill="#0B0B0B"/>
</svg>
