<svg width="271" height="278" viewBox="0 0 271 278" fill="none" xmlns="http://www.w3.org/2000/svg">
<path d="M270.748 200.903L246.237 50.6478L94.0997 0L0 86.3826V278L270.748 200.903Z" fill="#CAD8E9"/>
<g clip-path="url(#clip0_1566_642)">
<path d="M86.0071 170.641L63.4381 181.432L56 190.898L64.626 200.675L87.4777 206L93.4169 199.801L73.2237 195.35L69.6601 186.757L82.7264 183.207L107.728 186.757L149.868 186.165L147.181 179.065L135.302 178.192L143.334 165.767L145.399 151.37L148.369 170.641L154.308 182.024H166.497V175.234L157.871 172.557L158.465 155.991L164.122 135.001L166.497 116.35L162.623 102.742L164.404 95.9238L133.238 91.7822L117.485 115.167L92.5402 141.65L86.0071 159.259V170.641Z" fill="#0B0B0B"/>
<path d="M174.501 74.3427L170.033 63.383L163.782 59.5232L164.97 53.2967V48L152.781 56.2832L144.155 63.383L136.123 84.2036L166.412 91.8106V86.4857L173.257 84.2036L175.943 78.766L174.445 74.3146L174.501 74.3427ZM158.833 73.5539C157.306 73.5539 156.09 72.3424 156.09 70.821C156.09 69.2996 157.306 68.0881 158.833 68.0881C160.36 68.0881 161.576 69.2996 161.576 70.821C161.576 72.3424 160.36 73.5539 158.833 73.5539Z" fill="#0B0B0B"/>
</g>
<defs>
<clipPath id="clip0_1566_642">
<rect width="120" height="158" fill="white" transform="translate(56 48)"/>
</clipPath>
</defs>
</svg>
