<svg width="271" height="278" viewBox="0 0 271 278" fill="none" xmlns="http://www.w3.org/2000/svg">
<path d="M270.748 200.903L246.237 50.6478L94.0997 0L0 86.3826V278L270.748 200.903Z" fill="#CAD8E9"/>
<path d="M58 133.569H106.791L103.616 116.991L97.5605 119.224C97.5605 119.224 103.939 129.101 101.059 128.482C98.1795 127.863 84.1584 128.805 84.1584 128.805V117.018L80.0139 123.396L77.7802 128.509L64.3781 128.186L65.024 117.018L58 119.574V133.595V133.569Z" fill="#0B0B0B"/>
<path d="M148.209 133.569H197L193.824 116.991L187.769 119.224C187.769 119.224 194.147 129.101 191.268 128.482C188.388 127.863 174.367 128.805 174.367 128.805V117.018L170.223 123.396L167.989 128.509L154.587 128.186L155.233 117.018L148.209 119.574V133.595V133.569Z" fill="#0B0B0B"/>
<path d="M102.324 98.7985H151.734V84.1315L146.621 87.6569L145.679 94.977H132.923L130.689 87.011L126.383 86.6881V94.654L109.644 94.977L106.791 85.4232L102.324 87.011V98.7985Z" fill="#0B0B0B"/>
<path d="M114.111 80.6329L126.383 58L141.211 80.6329H114.111Z" fill="#0B0B0B"/>
<path d="M193.824 189.034L191.913 138.978H142.503V113.465L150.469 112.497V103.239H104.235L102.324 111.528L110.936 116.937V138.924H60.5565L65.0239 188.98H102.324V173.667L115.726 158.193L132.304 156.767L146.971 172.08V188.98H193.851L193.824 189.034ZM88.3027 171.81H76.5153V158.112L81.9246 151.734L88.3027 156.847V171.837V171.81ZM164.813 158.112L170.222 151.734L176.601 156.847V171.837H164.813V158.139V158.112Z" fill="#0B0B0B"/>
</svg>
