<svg width="271" height="278" viewBox="0 0 271 278" fill="none" xmlns="http://www.w3.org/2000/svg">
<path d="M270.748 200.903L246.237 50.6478L94.0997 0L0 86.3826V278L270.748 200.903Z" fill="#CAD8E9"/>
<path d="M93.2164 113.216L73.6708 126.541L59 121.759V100.008L85.881 83.4105L123.997 79L156.751 82.4124L182.17 94.1583L186 114.679L176.808 121.759L154.314 118.602L148.696 102.701H108.862L88.3184 102.77L93.2164 113.216Z" fill="#0B0B0B"/>
<path d="M165.549 137.66L143.311 126.541L137.925 111.267L104.939 108.342L98.4626 133.76L68.7728 138.658L77.0832 177.262H155.289L171.422 168.464L165.549 137.66ZM118.751 167.954L99.2055 150.845L109.953 134.712L130.242 140.817L138.297 159.643L118.751 167.954Z" fill="#0B0B0B"/>
</svg>
