<svg width="271" height="278" viewBox="0 0 271 278" fill="none" xmlns="http://www.w3.org/2000/svg">
<path d="M270.748 200.903L246.237 50.6478L94.0997 0L0 86.3826V278L270.748 200.903Z" fill="#CAD8E9"/>
<path d="M151.827 95.9136L175.543 105.448L172.198 120.133L168.585 133.783L155.706 143.583V176.834H161.627L158.785 183.762H143.862V143.85L127.607 143.583L105.46 133.546L99.8045 134.553V147.196L88.1979 160.342V176.034L96.4587 177.841L92.0767 183.762H81.7729L80.2036 156.197V138.698L77.3908 126.381H74.045L57.0201 162.148L54 154.154L71.4691 115.514L92.58 105.714L129.946 105.211L143.063 102.872L151.827 95.9136Z" fill="#0B0B0B"/>
<path d="M189.696 78.1491L178.356 69H170.362L155.943 79.1854V89.4891L177.971 100.563L184.544 93.3383H197.927L200 83.301L189.696 78.1491ZM175.099 82.4423C173.737 82.4423 172.612 81.3172 172.612 79.9552C172.612 78.5932 173.737 77.4681 175.099 77.4681C176.461 77.4681 177.586 78.5932 177.586 79.9552C177.586 81.3172 176.461 82.4423 175.099 82.4423Z" fill="#0B0B0B"/>
</svg>
