<svg width="271" height="278" viewBox="0 0 271 278" fill="none" xmlns="http://www.w3.org/2000/svg">
<path d="M270.748 200.903L246.237 50.6478L94.0997 0L0 86.3826V278L270.748 200.903Z" fill="#CAD8E9"/>
<path d="M36 107.652L74.571 122.516L117.55 110.814L124.162 79L149.509 107.652L225 112.094L219.12 123.804L219.096 123.809L216.489 128.792L215.169 124.561L213.663 124.85L212.2 131.164L207.868 125.963L206.067 126.309V132.035L200.218 127.431L197.735 127.907L198.381 133.538L191.425 129.12L188.514 129.677L189.803 132.827L186.648 130.035L184.075 130.528L184.084 131.404L180.749 131.166L183.803 132.559L185.991 131.878L185.717 133.429L189.121 134.98L190.839 134.565L191.664 136.138L194.185 137.286L196.953 135.908L197.906 138.982L200.032 139.949L204.657 136.596V142.058L205.965 142.653L209.741 138.5L211.347 145.106L214.585 138.5V146.581L170.267 151.588L154.472 169.14L152.268 150.855L143.309 149.97L141.432 151.453L114.248 177V148.111L108.146 146.5L76.8751 143.415L67.2276 148.109L40.7797 166.025L53.6367 135.742L36.0048 107.645L36 107.652ZM195.061 115.384C192.729 115.384 190.837 117.267 190.837 119.589C190.837 121.911 192.729 123.795 195.061 123.795C197.394 123.795 199.286 121.911 199.286 119.589C199.286 117.267 197.394 115.384 195.061 115.384ZM146.204 136.593L137.755 131.107L139.731 123.795L138.492 119.589L133.257 128L138.492 136.593H146.207H146.204ZM136.974 136.593L128.525 131.107L130.5 123.795L129.261 119.589L124.026 128L129.261 136.593H136.976H136.974ZM119.456 136.593H127.171L118.722 131.107L120.698 123.795L119.459 119.589L114.224 128L119.459 136.593H119.456Z" fill="#0B0B0B"/>
</svg>
