<svg width="271" height="278" viewBox="0 0 271 278" fill="none" xmlns="http://www.w3.org/2000/svg">
<path d="M270.748 200.903L246.237 50.6478L94.0997 0L0 86.3826V278L270.748 200.903Z" fill="#CAD8E9"/>
<g clip-path="url(#clip0_1565_456)">
<path d="M56 142.504L64.6522 181.706L78.9791 184.593L76.9179 191H84.9084L82.7708 184.264L158.172 184.922V191H165.501L162.167 184.264H175.603L201 141.162L56 142.504Z" fill="#0B0B0B"/>
<path d="M84.5522 88.5643L109.923 88.9442L103.587 78.4347L99.5916 78.6626L91.8556 64L74.6785 65.5194L63.3544 96.0096V132.957H74.6785L76.409 83.9807L83.4834 72.5848L88.2421 79.2704L85.3665 79.4223L84.5522 88.5643Z" fill="#0B0B0B"/>
</g>
<defs>
<clipPath id="clip0_1565_456">
<rect width="145" height="127" fill="white" transform="translate(56 64)"/>
</clipPath>
</defs>
</svg>
