<svg width="271" height="278" viewBox="0 0 271 278" fill="none" xmlns="http://www.w3.org/2000/svg">
<path d="M270.748 200.903L246.237 50.6478L94.0997 0L0 86.3826V278L270.748 200.903Z" fill="#CAD8E9"/>
<path d="M177.499 76.1324L183.607 66V72.68L191.411 68.2267L184.445 78.5225L177.499 76.1324Z" fill="#0B0B0B"/>
<path d="M178.01 80.9531H163.649L152.168 92.4338L144.508 100.319L123.221 92.4338L107.43 98.1741L106.715 122.096L125.387 147.692L127.532 162.053L111.496 157.988L91.3943 145.547L69.6178 138.132L64 152.248L74.6431 166.118L78.7083 182.87L70.5779 191H75.6032L84.9389 185.505L83.509 173.779L75.1334 157.743L77.5235 151.042L86.2259 154.862L117.951 175.924L140.442 172.104L143.793 148.428L126.572 123.791L125.366 113.271L143.548 118.541L157.663 114.231L174.169 103.935L178.95 89.104L177.99 80.9736L178.01 80.9531ZM165.753 90.4318C164.466 90.4318 163.424 89.39 163.424 88.103C163.424 86.816 164.466 85.7742 165.753 85.7742C167.04 85.7742 168.082 86.816 168.082 88.103C168.082 89.39 167.04 90.4318 165.753 90.4318ZM172.208 95.0895C170.921 95.0895 169.88 94.0476 169.88 92.7606C169.88 91.4737 170.921 90.4318 172.208 90.4318C173.495 90.4318 174.537 91.4737 174.537 92.7606C174.537 94.0476 173.495 95.0895 172.208 95.0895Z" fill="#0B0B0B"/>
</svg>
