<svg width="271" height="278" viewBox="0 0 271 278" fill="none" xmlns="http://www.w3.org/2000/svg">
<path d="M270.748 200.903L246.237 50.6478L94.0997 0L0 86.3826V278L270.748 200.903Z" fill="#CAD8E9"/>
<g clip-path="url(#clip0_1287_244)">
<path d="M125.198 110.73L124.934 128.596L110.806 143.288L108.794 135.982L122.455 121.837L118.767 110.709L129.735 91.3375L89.9294 122.87L93.9171 133.497L90.3895 142.033L88.5169 141.823L90.5286 132.754L81.3369 141.011L77.4205 140.571L81.3369 129.733L71.9241 139.949L68.6533 139.581V167.86L78.7973 180.254L82.0396 172.204L123.504 185.655L165.671 169.769L130.794 165.637L123.49 160.221L143.649 156.457L145.301 140.818L173.432 127.981L174.42 109.554L201.61 87.509L125.198 110.73Z" fill="#0B0B0B"/>
</g>
<defs>
<clipPath id="clip0_1287_244">
<rect width="132.957" height="98.1461" fill="white" transform="translate(68.6533 87.509)"/>
</clipPath>
</defs>
</svg>
