<svg width="271" height="278" viewBox="0 0 271 278" fill="none" xmlns="http://www.w3.org/2000/svg">
<path d="M270.748 200.903L246.237 50.6478L94.0997 0L0 86.3826V278L270.748 200.903Z" fill="#CAD8E9"/>
<path d="M191.977 117.493L170.768 102.523L180.223 68.9689L136.374 79.4341L128.796 62L106.579 77.2519L90.8834 65.4962L81.7336 88.5852H59L76.5019 133.473L59 121.271L62.918 149.593L96.9832 167.473C96.9832 167.473 109.629 162.756 120.585 158.979L115.025 171.837L111.74 180.12L97.1709 183.17L86.2851 193.636L105.03 191.031L107.212 198L117.23 195.818L125.512 190.585L156.011 188.849L140.761 178.384L139.025 168.364L144.257 160.081L145.735 158.322C154.134 162.17 164.903 167.496 164.903 167.496L192 152.244L170.791 139.597L192 117.517L191.977 117.493Z" fill="#0B0B0B"/>
</svg>
