<svg width="271" height="278" viewBox="0 0 271 278" fill="none" xmlns="http://www.w3.org/2000/svg">
<path d="M270.748 200.903L246.237 50.6478L94.0997 0L0 86.3826V278L270.748 200.903Z" fill="#CAD8E9"/>
<path d="M132.946 108.103L103.645 102.429L78.2544 115.351L66 137.762L76.967 179.842L99.4732 191H134.687L160.841 154.379L151.781 122.313L132.946 108.103Z" fill="#0B0B0B"/>
<path d="M184.801 75.7511L183.013 66L176.981 74.0345L167.302 66L171.546 73.5577L166.491 79.518L174.144 78.8028L174.979 79.9233C172.738 81.4253 169.257 84.3101 169.257 84.3101L173.119 94.991L167.087 97.3036L154.475 99.4732L145.153 91.844L142.125 93.8467L139.336 98.1142C139.336 98.1142 160.602 115.9 160.602 118.451C160.602 121.002 170.02 112.181 170.02 112.181L159.124 103.264L159.792 102.716L170.473 103.788L178.364 99.6162L175.575 90.1751L177.697 83.5949L182.942 90.6996L183.156 83.1419L191.405 79.6849L184.777 75.7034L184.801 75.7511Z" fill="#0B0B0B"/>
</svg>
