<svg width="271" height="278" viewBox="0 0 271 278" fill="none" xmlns="http://www.w3.org/2000/svg">
<path d="M270.748 200.903L246.237 50.6478L94.0997 0L0 86.3826V278L270.748 200.903Z" fill="#CAD8E9"/>
<path d="M87.3258 91.2288H93.0582L98.8119 83.3228L94.145 81L87.3258 85.6456V81H67.4861L66.8468 85.2194L60.6456 81L56 83.3228L61.7324 91.2288H65.9518L64.9928 97.7497L69.6384 114.499H78.6526L87.3258 100.541V91.2288Z" fill="#0B0B0B"/>
<path d="M190.275 111.985L186.247 85.6243H169.497L100.943 91.5058L82.6376 120.658L98.7693 142.373L96.9153 178.664L92.5681 188.594L99.7069 187.976L103.735 179.282L107.144 166.261L108.082 149.192L111.193 147.338L113.367 165.026L114.603 181.456L110.873 187.039L110.554 189.83L119.866 187.976L122.04 181.157L119.866 166.879L120.186 158.505L119.568 147.658L123.553 139.901L130.116 140.839L150.595 138.367L166.109 133.401L167.047 144.248L163.317 177.13L158.352 180.241L158.672 183.97L168.901 182.415L172.928 162.873L175.72 149.235L174.484 138.388L176.338 130.951L180.365 140.242L176.956 165.068L176.018 179.346L175.081 186.485L178.81 188.04L185.011 184.013L186.567 166.325L188.74 154.541L186.567 126.923L190.296 112.027L190.275 111.985ZM143.201 134.019H125.513L111.086 115.565L107.826 97.1104L122.253 100.989L125.513 106.572L135.295 104.718L144.607 113.093L148.805 120.999L143.222 134.041L143.201 134.019ZM165.534 116.332L157.159 114.478L148.784 100.52L151.576 93.0828L165.534 104.249V116.353V116.332ZM169.029 104.228L160.888 97.0891V89.9502H166.471L177.169 100.03L169.029 104.228Z" fill="#0B0B0B"/>
</svg>
