<svg width="271" height="278" viewBox="0 0 271 278" fill="none" xmlns="http://www.w3.org/2000/svg">
<path d="M270.748 200.903L246.237 50.6478L94.0997 0L0 86.3826V278L270.748 200.903Z" fill="#CAD8E9"/>
<path d="M50.5271 167.41L81.7722 146.314L118.876 166.02L135.356 146.314L164.619 166.02L186.307 146.314L199.444 181.82L50.5271 176.553V167.41Z" fill="#0B0B0B"/>
<path d="M46 128.709L72.5997 98.5294L93.4594 71.1899L127.19 64L161.394 80.5398L127.19 79.8297L107.839 96.3694L104.289 128.709L73.3395 140.16L46 128.709Z" fill="#0B0B0B"/>
<path d="M208.735 124.639L186.161 130.342L175.063 116.83H150.078L128.811 106.886L133.808 87.6704L114.053 103.288L118.817 130.342L138.602 140.929L154.29 134.173L184.883 140.929L208.735 134.173V124.639Z" fill="#0B0B0B"/>
</svg>
