<svg width="271" height="278" viewBox="0 0 271 278" fill="none" xmlns="http://www.w3.org/2000/svg">
<path d="M270.748 200.903L246.237 50.6478L94.0997 0L0 86.3826V278L270.748 200.903Z" fill="#CAD8E9"/>
<path d="M159.904 152.945L193.641 188.774L205 169.221L164.17 145.571L162.899 139.919L163.238 132.149L134.022 125.057L86.6367 96.4338L83.8959 86.1487L79.4597 93.806L51.2887 79L49 82.9558L78.2447 102.396L76.8037 105.532L80.5334 106.945L83.9241 105.673L130.348 134.664L115.401 155.912L121.674 164.671L137.327 150.063L145.154 154.217L145.211 169.786L155.27 170.69L159.904 152.945Z" fill="#0B0B0B"/>
</svg>
