<svg width="271" height="278" viewBox="0 0 271 278" fill="none" xmlns="http://www.w3.org/2000/svg">
<path d="M270.748 200.903L246.237 50.6478L94.0997 0L0 86.3826V278L270.748 200.903Z" fill="#CAD8E9"/>
<path d="M175.353 83.5267H167.18L161.8 74.3191L112.788 73L82.3459 76.5175L83.4063 84.7164H72.6727L69 102.976L71.3536 119.271L86.3289 111.408L95.7176 96.6398L90.1568 89.5789L93.8037 85.9579L114.65 79.0005H150.498L159.059 86.8632L152.308 95.45L161.671 110.218L176.646 118.081L179 101.787L175.353 83.5267Z" fill="#0B0B0B"/>
<path d="M140.023 109.365L102.003 106.442L86.6653 140.583L80.6907 173.896L94.9935 180.62L97.0368 205.941L106.632 186.104L107.745 186.621L138.833 182.612L149.205 204.053L151.067 181.034L172.25 178.293V140.609L139.971 109.391L140.023 109.365ZM104.667 172.163L96.1315 164.507L97.942 137.634L104.693 116.4H135.729L159.55 134.375L164.516 169.007L104.667 172.163Z" fill="#0B0B0B"/>
<path d="M127.608 144.282H136.816L127.608 120.435L124.013 122.452L127.608 144.282Z" fill="#0B0B0B"/>
<path d="M128.074 147.876L112.788 153.489L110.848 157.549H117.314L128.85 150.385V148.238" fill="#0B0B0B"/>
</svg>
