<svg width="102" height="102" viewBox="0 0 102 102" fill="none" xmlns="http://www.w3.org/2000/svg">
<rect x="0.5" y="0.5" width="101" height="101" fill="#0B0B0B" stroke="#0B0B0B"/>
<rect x="8.8335" y="8.83325" width="84.3333" height="84.3333" fill="#0B0B0B" stroke="#E0EAF7"/>
<g clip-path="url(#clip0_1168_1576)">
<path d="M48.7683 38.7079L48.6426 47.203L41.9127 54.1887L40.9545 50.7145L47.4618 43.9889L45.705 38.6977L50.9295 29.4871L31.9683 44.4801L33.8678 49.5333L32.1874 53.5921L31.2954 53.4918L32.2537 49.1797L27.8753 53.106L26.0097 52.8969L27.8753 47.7435L23.3915 52.6012L21.8335 52.4261V65.8724L26.6656 71.7652L28.21 67.9375L47.9613 74.3334L68.0473 66.78L51.4341 64.8152L47.9545 62.2401L57.5575 60.4504L58.3441 53.0142L71.7444 46.9106L72.2151 38.1487L85.1668 27.6667L48.7683 38.7079Z" fill="#2A2F36"/>
</g>
<defs>
<clipPath id="clip0_1168_1576">
<rect width="63.3333" height="46.6667" fill="white" transform="translate(21.8335 27.6667)"/>
</clipPath>
</defs>
</svg>
