<svg width="50" height="50" viewBox="0 0 50 50" fill="none" xmlns="http://www.w3.org/2000/svg">
<rect x="1.5" y="1.5" width="47" height="47" stroke="#F6F7FA" stroke-width="3"/>
<path d="M25.8333 25.7917L25.2083 29.0417H22.0417L21.4167 24.5417C23.1667 23.7917 26.375 22.0417 26.375 18.75C26.375 16.5833 25.375 14.9583 23.625 14.9583C22.875 14.9583 22.25 15.125 21.625 15.4167L20.4167 19.5833H18V14.4583C20.0833 13.4583 22.8333 13 24.5833 13C28.7083 13 32.2083 14.5833 32.2083 18.9583C32.2083 22.8333 28.0833 24.9167 25.8333 25.7917ZM24.0833 38C22.2083 38 20.875 36.5833 20.875 35.0833C20.875 33.4583 22.2083 32 24.0833 32C26 32 27.125 33.4583 27.125 35.0833C27.125 36.5417 25.9583 38 24.0833 38Z" fill="#F6F7FA"/>
</svg>
