<svg width="50" height="50" viewBox="0 0 50 50" fill="none" xmlns="http://www.w3.org/2000/svg">
<g clip-path="url(#clip0_1198_8)">
<path d="M57.1201 -3.73999H-4.62988V54.76H57.1201V-3.73999Z" fill="none"/>
<path d="M14.4134 8.0742L14.6991 7.27998L13.7078 7L12.5221 7.7028L12.0879 8.35989L12.905 9.01412L14.4134 8.0742Z" fill="#0B0B0B"/>
<path d="M32.458 22.3131L34.0264 22.1216L35.712 20.9503L34.9749 20.5189L32.8123 21.5417L32.458 22.3131Z" fill="#0B0B0B"/>
<path d="M25.2155 8.90559L29.8294 9.06843L26.5011 7.93138L22.7272 7.71997L16.6077 8.89702L16.8619 9.52839L25.2155 8.90559Z" fill="#0B0B0B"/>
<path d="M23.0986 30.1524L23.4243 30.8038L24.13 31.0923L24.2843 30.2438L23.9614 29.5325L23.0986 30.1524Z" fill="#0B0B0B"/>
<path d="M22.6501 30.2438L23.5557 28.8068L23.0758 28.0782L22.0587 28.3497L21.3502 29.5324L21.2302 30.6923L21.8816 32.0551L23.4243 32.5207L23.6986 31.6637L22.9244 30.9323L22.6501 30.2438Z" fill="#0B0B0B"/>
<path d="M19.6132 12.3681L20.3417 11.3539L19.4275 10.6426L18.5161 11.3539L19.6132 12.3681Z" fill="#0B0B0B"/>
<path d="M11.6739 27.624L10.5483 25.8842L8.39703 23.7244L7.25426 24.0272L7 25.1328L8.52273 26.3956L9.33695 28.2154L10.514 28.5554L11.6739 27.624Z" fill="#0B0B0B"/>
<path d="M37.3319 29.5438L36.3092 29.7609L36.6634 31.2265L36.7605 32.0836L36.0435 32.735L36.7405 33.4006L37.749 32.5321L38.3318 31.6751L37.5548 30.8609L37.3319 29.5438Z" fill="#0B0B0B"/>
<path d="M35.2665 33.9664L34.5522 34.1206L35.0836 35.2006L36.235 35.412L36.9549 35.432L37.2377 35.0034L36.1578 34.6549L35.2665 33.9664Z" fill="#0B0B0B"/>
<path d="M35.7118 38.8917L35.2518 39.9402L34.849 40.4487L34.1748 40.5944L34.7633 38.1318L34.3976 35.9834L31.2836 32.6779L28.8523 28.9697L28.3038 26.7813L34.1519 25.8585L34.7376 27.4955L36.6117 28.7668L36.9202 24.0187L35.7403 22.8616L28.9523 23.9187L29.1437 23.0159L32.1806 20.8418L31.3578 19.579L44.3339 11.6368L43.8197 10.0569L39.7114 12.2196L34.1005 15.1365L28.9038 18.522V20.0761L20.0531 25.4185L18.1732 23.4616L16.2705 18.4248L14.4507 9.73126H14.025L14.4907 15.6308L15.6763 20.4989L17.5818 24.3072L19.036 26.0356L17.8304 26.7613L10.6824 29.9496L9.91675 34.3464L12.3823 37.9289L16.6962 40.883L18.9731 34.0093L21.2215 35.3663L21.4301 36.4976L23.7413 37.7604L22.8585 40.6687L27.461 42L30.6322 41.0773L31.6692 41.5744L33.7119 41.6572L34.4233 41.8143L36.1689 40.9258L36.7717 38.6717L37.0688 37.2976L36.306 37.129L35.7089 38.8974L35.7118 38.8917ZM24.6413 34.8035L24.1556 36.4005C24.0584 36.3662 23.9527 36.3291 23.8413 36.2891L22.5014 35.032V34.5664L21.113 33.4093L20.1588 32.4465H19.7817L19.496 32.1551L19.4817 32.1694L19.7074 28.2583L21.8615 26.5356L25.0498 26.8156L26.0326 28.3812L24.6413 34.8035Z" fill="#0B0B0B"/>
<path d="M32.3949 13.4852L31.6007 12.8395V11.8367L32.1378 11.5653L31.0493 10.2883L28.1553 9.90833L29.4637 13.4766L32.8863 14.8593L33.4891 13.4109L32.3949 13.4852Z" fill="#0B0B0B"/>
</g>
<defs>
<clipPath id="clip0_1198_8">
<rect width="50" height="50" fill="white"/>
</clipPath>
</defs>
</svg>
