<svg width="102" height="102" viewBox="0 0 102 102" fill="none" xmlns="http://www.w3.org/2000/svg">
<g id="Group 547">
<g id="Group 493">
<g id="Group 405">
<g id="Group 403">
<rect id="Rectangle 75" x="0.5" y="0.5" width="101" height="101" fill="#0B0B0B" stroke="#0B0B0B"/>
<rect id="Rectangle 77" x="8.8335" y="8.8335" width="84.3333" height="84.3333" fill="#0B0B0B" stroke="#E0EAF7"/>
</g>
</g>
</g>
<g id="Layer_1">
<g id="Group">
<path id="Vector" d="M23.83 31.77L33.65 39.59L23 35.68L23.83 31.77Z" fill="#808D9D"/>
<path id="Vector_2" d="M36.1399 21.5898L41.1299 30.4698L37.5599 29.1698L33.6499 22.1798L36.1399 21.5898Z" fill="#808D9D"/>
<path id="Vector_3" d="M65.6198 21L60.5298 30.47L64.4298 28.69L67.8698 22.66L65.6198 21Z" fill="#808D9D"/>
<path id="Vector_4" d="M77.9301 31.77L67.8701 37.93L78.6401 35.68L77.9301 31.77Z" fill="#808D9D"/>
<path id="Vector_5" d="M54.49 33.0698H46.2L34.48 43.0198L39.45 61.3698L46.2 73.5598L49.44 73.1598L47.3 62.6598V55.1598L45.04 54.9598L45.9 53.2398L52.3 53.8598L51.24 55.5198L49.58 55.3698L49.48 62.2198L51.75 72.8698L52.83 72.7298L55.44 70.7198L58.87 61.9598L63.01 52.6098L64.43 41.4798L54.49 33.0698Z" fill="#808D9D"/>
</g>
<path id="Vector_6" d="M41.71 81.0802L42.89 74.8002L57.44 74.4102L56.96 81.0802H41.71Z" fill="#808D9D"/>
</g>
</g>
</svg>
