<svg width="102" height="102" viewBox="0 0 102 102" fill="none" xmlns="http://www.w3.org/2000/svg">
<rect x="0.5" y="0.5" width="101" height="101" fill="#0B0B0B" stroke="#0B0B0B"/>
<rect x="8.8335" y="8.8335" width="84.3333" height="84.3333" fill="#0B0B0B" stroke="#E0EAF7"/>
<g clip-path="url(#clip0_1301_1767)">
<path d="M32.8718 44.6791L32.0132 41.3706L33.8579 36.9622L38.9074 34.6353L39.647 35.4899L34.4784 38.6799L33.8579 42.8429L32.8718 44.6791Z" fill="#808D9D"/>
<path d="M26.4792 44.6792L25 41.98L26.4792 35.9808L29.5565 31.9362L33.6114 29H36.4422V30.3454L32.0132 32.5538L29.1824 36.1077L27.7033 39.6531L28.0773 44.6792H26.4792Z" fill="#808D9D"/>
<path d="M69.128 44.6791L69.9866 41.3706L68.1419 36.9622L63.1009 34.6353L62.3613 35.4899L67.5299 38.6799L68.1419 42.8429L69.128 44.6791Z" fill="#808D9D"/>
<path d="M75.5292 44.6792L76.9998 41.98L75.5292 35.9808L72.4518 31.9362L68.3884 29H65.5576V30.3454L69.9866 32.5538L72.8174 36.1077L74.2965 39.6531L73.9225 44.6792H75.5292Z" fill="#808D9D"/>
<path d="M32.7954 72.9999L35.1672 68.2783H64.2997L69.2048 72.9999H32.7954Z" fill="#808D9D"/>
<path d="M58.0258 40.9731L43.6338 41.9801L37.3687 51.7616V65.9178H48.3773L48.6323 65.4101L50.494 57.4901L47.7823 54.4524L49.1424 51.2539H52.8658L54.7275 54.2916L52.5258 57.4901L53.3248 65.9178H64.2995L65.1411 51.7616L58.0258 40.9731Z" fill="#808D9D"/>
</g>
<defs>
<clipPath id="clip0_1301_1767">
<rect width="52" height="44" fill="white" transform="translate(25 29)"/>
</clipPath>
</defs>
</svg>
