<svg width="102" height="102" viewBox="0 0 102 102" fill="none" xmlns="http://www.w3.org/2000/svg">
<rect x="0.5" y="0.5" width="101" height="101" fill="#0B0B0B" stroke="#0B0B0B"/>
<rect x="8.83301" y="8.8335" width="84.3333" height="84.3333" fill="#0B0B0B" stroke="#E0EAF7"/>
<path d="M65.53 32.28L67.83 23.19H62.3L52.64 21L50.34 22.96L47.23 23.54L45.39 31.02L49.84 34.93L48.54 36.97L47.13 36.69L35 63.34L36.48 81.3L50.89 75.08L59.7 39.16L58.08 38.84L57.36 36.07L65.53 32.27V32.28ZM62.31 29.98L57.48 32.86V32.28L60.7 28.83L62.31 29.98ZM58.74 25.26L59.6 26.35L57.01 28.19L53.84 26L58.73 25.25L58.74 25.26ZM53.85 28.66L56.27 31.83L53.85 31.37L53.39 28.84L53.85 28.67V28.66ZM48.73 29.52L51.38 28.83L52.88 32.05L51.84 32.86L48.73 29.52Z" fill="#808D9D"/>
</svg>
