<svg width="102" height="102" viewBox="0 0 102 102" fill="none" xmlns="http://www.w3.org/2000/svg">
<rect x="0.5" y="0.5" width="101" height="101" fill="#0B0B0B" stroke="#0B0B0B"/>
<rect x="8.83301" y="8.8335" width="84.3333" height="84.3333" fill="#0B0B0B" stroke="#E0EAF7"/>
<g clip-path="url(#clip0_1301_1823)">
<path d="M55.84 65.81L51.48 66.34L47.68 55.4L50.73 41.72L51.65 42.74L50.4 53.03L54.3 52.8L56.67 44.04L59.39 55.28L62.23 51.97L61.87 43.45L53.95 38.48H57.97L67.19 41.2L65.54 35.94L60.69 32.45L53.83 32.81L52.76 29.02L48.39 25H41.88L47 28.43L49.33 37.42L43.42 31.03L35.38 31.62L31 40.73L42.47 37.18L38.57 40.02L39.16 46.88L47.8 38.48L41.88 53.15L44.73 67.16L38.33 67.94L32.54 75.03L62.94 76.33L71.69 72.79L55.84 65.81Z" fill="#808D9D"/>
</g>
<defs>
<clipPath id="clip0_1301_1823">
<rect width="40.69" height="51.33" fill="white" transform="translate(31 25)"/>
</clipPath>
</defs>
</svg>
