<svg width="102" height="102" viewBox="0 0 102 102" fill="none" xmlns="http://www.w3.org/2000/svg">
<rect x="0.5" y="0.5" width="101" height="101" fill="#0B0B0B" stroke="#0B0B0B"/>
<rect x="8.8335" y="8.8335" width="84.3333" height="84.3333" fill="#0B0B0B" stroke="#E0EAF7"/>
<g clip-path="url(#clip0_1301_2270)">
<path d="M30.59 62.2898L33.26 75.2198H39.36L34.28 61.4198L51.6 62.2898L59.43 75.2198H63.37L57.78 61.4198L60.32 53.4198L48.25 47.2398L34.53 48.7198L33 55.0698L29.45 52.0498V46.5498H25L29.96 58.4998L30.59 62.2898Z" fill="#808D9D"/>
<path d="M66.7998 27L54.5998 31.63L54.0098 42.82C54.0898 43.55 65.2698 54.48 65.2698 54.48L76.4498 46.22L77.2098 35.42L66.7998 27ZM69.9998 41.86L68.7298 45.73H63.3898L61.7398 42.37L58.8198 37.14L62.3798 35.77L67.0798 37.68L70.6398 35.77L72.4198 38.55L70.0098 41.87L69.9998 41.86Z" fill="#808D9D"/>
</g>
<defs>
<clipPath id="clip0_1301_2270">
<rect width="52.22" height="48.22" fill="white" transform="translate(25 27)"/>
</clipPath>
</defs>
</svg>
