<svg width="102" height="102" viewBox="0 0 102 102" fill="none" xmlns="http://www.w3.org/2000/svg">
<rect x="0.5" y="0.5" width="101" height="101" fill="#0B0B0B" stroke="#0B0B0B"/>
<rect x="8.8335" y="8.8335" width="84.3333" height="84.3333" fill="#0B0B0B" stroke="#E0EAF7"/>
<g clip-path="url(#clip0_1301_2284)">
<path d="M25 55.0799H43.13L41.95 48.9199L39.7 49.7499C39.7 49.7499 42.07 53.4199 41 53.1899C39.93 52.9599 34.72 53.3099 34.72 53.3099V48.9299L33.18 51.2999L32.35 53.1999L27.37 53.0799L27.61 48.9299L25 49.8799V55.0899V55.0799Z" fill="#808D9D"/>
<path d="M58.52 55.0799H76.65L75.47 48.9199L73.22 49.7499C73.22 49.7499 75.59 53.4199 74.52 53.1899C73.45 52.9599 68.24 53.3099 68.24 53.3099V48.9299L66.7 51.2999L65.87 53.1999L60.89 53.0799L61.13 48.9299L58.52 49.8799V55.0899V55.0799Z" fill="#808D9D"/>
<path d="M41.4702 42.16H59.8302V36.71L57.9302 38.02L57.5802 40.74H52.8402L52.0102 37.78L50.4102 37.66V40.62L44.1902 40.74L43.1302 37.19L41.4702 37.78V42.16Z" fill="#808D9D"/>
<path d="M45.8501 35.41L50.4101 27L55.9201 35.41H45.8501Z" fill="#808D9D"/>
<path d="M75.4702 75.6901L74.7602 57.0901H56.4002V47.6101L59.3602 47.2501V43.8101H42.1802L41.4702 46.8901L44.6702 48.9001V57.0701H25.9502L27.6102 75.6701H41.4702V69.9801L46.4502 64.2301L52.6102 63.7001L58.0602 69.3901V75.6701H75.4802L75.4702 75.6901ZM36.2602 69.2901H31.8802V64.2001L33.8902 61.8301L36.2602 63.7301V69.3001V69.2901ZM64.6902 64.2001L66.7002 61.8301L69.0702 63.7301V69.3001H64.6902V64.2101V64.2001Z" fill="#808D9D"/>
</g>
<defs>
<clipPath id="clip0_1301_2284">
<rect width="51.64" height="48.69" fill="white" transform="translate(25 27)"/>
</clipPath>
</defs>
</svg>
