<svg width="102" height="102" viewBox="0 0 102 102" fill="none" xmlns="http://www.w3.org/2000/svg">
<rect x="0.5" y="0.5" width="101" height="101" fill="#0B0B0B" stroke="#0B0B0B"/>
<rect x="8.8335" y="8.8335" width="84.3333" height="84.3333" fill="#0B0B0B" stroke="#E0EAF7"/>
<path d="M70.28 44.58L46.41 24C46.41 24 43.92 27.27 40.94 31.21L38.41 24L34.08 29.15L38.18 34.88C34.7 39.49 31.36 43.97 31 44.58H70.28Z" fill="#808D9D"/>
<path d="M31 50V78.36L45.73 76.54V68.88H55.55L54.36 75.47L70.28 73.5V50.01H31V50ZM45.63 64.83L40.14 66.56L38.41 54.43H45.63V64.83ZM60.36 64.83L54.87 66.56L53.14 54.43H60.36V64.83Z" fill="#808D9D"/>
</svg>
