<svg width="102" height="102" viewBox="0 0 102 102" fill="none" xmlns="http://www.w3.org/2000/svg">
<rect x="0.5" y="0.5" width="101" height="101" fill="#0B0B0B" stroke="#0B0B0B"/>
<rect x="8.8335" y="8.8335" width="84.3333" height="84.3333" fill="#0B0B0B" stroke="#E0EAF7"/>
<g clip-path="url(#clip0_1475_1302)">
<path d="M52.6598 41.91L54.6598 37.73L56.9298 29.43L52.1998 24L44.1098 26.38L43.2998 32.58L47.7098 41.83L52.6598 41.91Z" fill="#808D9D"/>
<path d="M48.2701 46.9001L49.1901 45.0101L51.0401 46.8701L51.3901 45.4301L52.8601 46.4401L53.0201 43.4401L47.3901 43.1401L48.2701 46.9001Z" fill="#808D9D"/>
<path d="M45.06 46.02L44.03 37.47L37.59 34.23L31 39.49L32.6 45.53L40.18 52.43L44.79 50.64L45.06 46.02Z" fill="#808D9D"/>
<path d="M44.9401 54.3799L46.6801 54.7599L45.7001 51.9199L40.3701 53.7699L42.6001 56.9199L42.7401 54.8199L45.1601 55.8399L44.9401 54.3799Z" fill="#808D9D"/>
<path d="M64.3001 35.4902L57.8701 38.7402L56.8301 47.2802L57.1001 51.9002L61.7201 53.7002L69.3001 46.7902L70.9001 40.7502L64.3001 35.4902Z" fill="#808D9D"/>
<path d="M55.21 56.0202L56.96 55.6402L56.74 57.1002L59.15 56.0902L59.29 58.1802L61.52 55.0302L56.2 53.1802L55.21 56.0202Z" fill="#808D9D"/>
<path d="M51.7502 67.8299L52.3202 64.2599L51.8402 50.2699L49.3002 48.6299L49.9402 64.1299L49.7802 65.6299L46.9202 58.3299L44.2202 58.1299L48.8402 69.6699L49.1802 71.2999L49.5702 73.2099L50.0802 75.6999L49.7202 78.1899L51.6202 77.9299L51.8302 76.8799L52.0302 75.9299L53.0502 70.9399L57.6802 59.3999L54.9702 59.5899L51.7502 67.8299Z" fill="#808D9D"/>
</g>
<defs>
<clipPath id="clip0_1475_1302">
<rect width="39.9" height="54.19" fill="white" transform="translate(31 24)"/>
</clipPath>
</defs>
</svg>
