<svg width="102" height="102" viewBox="0 0 102 102" fill="none" xmlns="http://www.w3.org/2000/svg">
<rect x="0.5" y="0.5" width="101" height="101" fill="#0B0B0B" stroke="#0B0B0B"/>
<rect x="8.8335" y="8.8335" width="84.3333" height="84.3333" fill="#0B0B0B" stroke="#E0EAF7"/>
<g clip-path="url(#clip0_1475_1320)">
<path d="M79.0002 26.97L75.6002 22L66.7202 26.56V31.26L53.1202 43.59L48.8802 39.97L42.3902 41.01L38.2402 49.08L25.1102 53.36L21.9902 64.14L27.1802 75.19L40.0302 80.35L49.9002 73.95L51.6402 64L58.5002 59.44L61.7202 52.81L57.2902 47.15L56.5802 46.54L72.8702 34.3L78.9902 26.98L79.0002 26.97ZM37.5802 71.11L31.0902 65.58L29.4302 62.4L30.2602 60.93L40.9002 69.17L37.5802 71.1V71.11ZM47.8002 61.46L40.7502 63.65L36.7402 59L38.9502 54.67L42.6802 52.6L47.7902 54.67V61.46H47.8002Z" fill="#808D9D"/>
</g>
<defs>
<clipPath id="clip0_1475_1320">
<rect width="57" height="58.35" fill="white" transform="translate(22 22)"/>
</clipPath>
</defs>
</svg>
