<svg width="102" height="102" viewBox="0 0 102 102" fill="none" xmlns="http://www.w3.org/2000/svg">
<rect x="0.5" y="0.5" width="101" height="101" fill="#0B0B0B" stroke="#0B0B0B"/>
<rect x="8.8335" y="8.8335" width="84.3333" height="84.3333" fill="#0B0B0B" stroke="#E0EAF7"/>
<g clip-path="url(#clip0_1475_1219)">
<path d="M79.0321 43.6587L68.8358 41.9701L67.7264 40.6773L74.3302 34.266L68.9547 32.828L64.4906 36.878L60.7132 32.4323L58.8906 23L48.8132 24.2005L40.0434 37.3925L40.9679 42.8803L53.2641 44.714L54.3868 46.0464L53.2641 47.0622L32.3302 67.8396H27.1L25 74.119L29.7151 79L36.6491 75.5569L35.7245 71.7708L57.9 50.2283L60.1981 52.9458L60.8453 64.3173L74.7132 60.9138L81 49.2916L79.0321 43.6587Z" fill="#808D9D"/>
</g>
<defs>
<clipPath id="clip0_1475_1219">
<rect width="56" height="56" fill="white" transform="translate(25 23)"/>
</clipPath>
</defs>
</svg>
