<svg width="102" height="102" viewBox="0 0 102 102" fill="none" xmlns="http://www.w3.org/2000/svg">
<rect x="0.5" y="0.5" width="101" height="101" fill="#0B0B0B" stroke="#0B0B0B"/>
<rect x="8.8335" y="8.8335" width="84.3333" height="84.3333" fill="#0B0B0B" stroke="#E0EAF7"/>
<g clip-path="url(#clip0_1475_1143)">
<path d="M64.9402 40.3672H57.9644L46.5912 36L50.5741 41.9179L34.0784 48.9647L21.7037 40.2303L29.1055 51.9179L20 61.496L34.6424 55.293L48.8704 61.496L45.4515 66L58.8277 63.1836L65.9302 63.4686L60.3817 52.4766L64.9402 40.3672Z" fill="#808D9D"/>
<path d="M67.9216 40.5039L63.6509 53.4686L68.6238 62.7616L81.9884 50.3671L67.9101 40.5039H67.9216ZM70.6267 49.3751C69.7634 49.3751 69.0612 48.6795 69.0612 47.8243C69.0612 46.9691 69.7634 46.2736 70.6267 46.2736C71.4901 46.2736 72.1923 46.9691 72.1923 47.8243C72.1923 48.6795 71.4901 49.3751 70.6267 49.3751Z" fill="#808D9D"/>
</g>
<defs>
<clipPath id="clip0_1475_1143">
<rect width="62" height="30" fill="white" transform="translate(20 36)"/>
</clipPath>
</defs>
</svg>
