<svg width="102" height="102" viewBox="0 0 102 102" fill="none" xmlns="http://www.w3.org/2000/svg">
<rect x="0.5" y="0.5" width="101" height="101" fill="#0B0B0B" stroke="#0B0B0B"/>
<rect x="8.8335" y="8.8335" width="84.3333" height="84.3333" fill="#0B0B0B" stroke="#E0EAF7"/>
<g clip-path="url(#clip0_1475_1156)">
<path d="M73.18 66.13L69.45 59.77L66.49 49.57L63.42 35.96L56.73 33L48.94 35.85L38.62 34.86L28.42 40.02L23.05 56.04L18 61.8L19.65 68.76H25.24L27.54 66.24H25.24V62.62L33.51 57.64L37.75 68H47.35V65.69L44.22 65.03L42.55 55.49L46.41 54.83L46.52 57.14L50.47 68.22L57.49 67.89L57.93 65.91L54.97 63.5L56.84 54.83L69.12 69.42L75.49 68.76L76.69 66.65L73.18 66.13Z" fill="#808D9D"/>
<path d="M65.3901 35.96L68.0301 45.84L74.6101 47.81L77.6801 46.27H81.7401L83.3901 43.42L79.5501 41.34L78.4501 36.95L74.3901 35.96V33H70.9901L70.0001 35.41L65.3901 35.96Z" fill="#808D9D"/>
</g>
<defs>
<clipPath id="clip0_1475_1156">
<rect width="65.39" height="36.42" fill="white" transform="translate(18 33)"/>
</clipPath>
</defs>
</svg>
