<svg width="102" height="102" viewBox="0 0 102 102" fill="none" xmlns="http://www.w3.org/2000/svg">
<rect x="0.5" y="0.5" width="101" height="101" fill="#0B0B0B" stroke="#0B0B0B"/>
<rect x="8.8335" y="8.8335" width="84.3333" height="84.3333" fill="#0B0B0B" stroke="#E0EAF7"/>
<g clip-path="url(#clip0_1475_955)">
<path d="M27.56 33.4799L29.57 32.5799L32.14 35.9299L39.96 32.5799L52.58 31.6899L61.96 36.8299L69.11 44.3099L71.34 55.1399L67.09 70.2199L70 72.0099L70.11 75.3599H63.97L62.96 68.4399L65.87 60.8399L63.63 48.4399L58.83 38.1699L50.23 34.8199L37.95 37.3899L31.47 39.8399L27 37.1599L27.56 33.4799Z" fill="#808D9D"/>
<path d="M44.37 56.71H40.51L34.48 63.52L37.5 64.64L38.62 67.99L45.99 62.35V58.05L69.22 35.04L71.34 37.05L74.69 27L65.31 31.13L66.54 33.59L44.37 56.71Z" fill="#808D9D"/>
</g>
<defs>
<clipPath id="clip0_1475_955">
<rect width="47.69" height="48.36" fill="white" transform="translate(27 27)"/>
</clipPath>
</defs>
</svg>
