<svg width="102" height="102" viewBox="0 0 102 102" fill="none" xmlns="http://www.w3.org/2000/svg">
<rect x="0.5" y="0.5" width="101" height="101" fill="#0B0B0B" stroke="#0B0B0B"/>
<rect x="8.8335" y="8.8335" width="84.3333" height="84.3333" fill="#0B0B0B" stroke="#E0EAF7"/>
<g clip-path="url(#clip0_1475_1233)">
<path d="M63.91 60.5699L63.74 56.1899L72.5 55.8399L73.47 52.2699L63.6 52.6699L63.48 49.6499L62.35 47.8099L65.6 43.5799L71.22 44.8199L71.94 41.7999L65.21 40.6699L60.75 45.1699L59 42.3099L41.21 43.0199L39.6 45.5599L35.31 41.8699L28.69 43.5199L29.65 46.4799L35.15 44.7999L38.05 48.0099L37.41 49.0199L37.59 53.6999L28 54.0899L29.25 57.5699L37.73 57.2299L37.91 61.6499L34.59 62.2299L29.81 71.6099L32.38 73.1799L36.98 66.1699L39.14 65.2899L42.32 70.9699L51.43 73.8099L58.47 70.8799L62.18 63.9999L65.48 65.0299L70.62 71.6499L73.06 69.8799L67.55 60.9099L63.91 60.5699Z" fill="#808D9D"/>
<path d="M42.4099 30.84L44.6899 33.36L44.4399 33.42L42.7599 40.04L57.3799 40.01L55.4699 33.96L54.5599 33.42L56.9899 30.26L61.3499 31.22L61.9099 28.87L56.6899 28L52.5099 32.22L51.4699 31.61L47.3199 32.68L42.5399 28.56L37.3999 29.85L38.1399 32.14L42.4099 30.84Z" fill="#808D9D"/>
</g>
<defs>
<clipPath id="clip0_1475_1233">
<rect width="45.47" height="45.81" fill="white" transform="translate(28 28)"/>
</clipPath>
</defs>
</svg>
