<svg width="102" height="102" viewBox="0 0 102 102" fill="none" xmlns="http://www.w3.org/2000/svg">
<rect x="0.5" y="0.5" width="101" height="101" fill="#0B0B0B" stroke="#0B0B0B"/>
<rect x="8.8335" y="8.8335" width="84.3333" height="84.3333" fill="#0B0B0B" stroke="#E0EAF7"/>
<g clip-path="url(#clip0_1475_1184)">
<path d="M40.61 66.53L32.63 70.36L30 73.72L33.05 77.19L41.13 79.08L43.23 76.88L36.09 75.3L34.83 72.25L39.45 70.99L48.29 72.25L63.19 72.04L62.24 69.52L58.04 69.21L60.88 64.8L61.61 59.69L62.66 66.53L64.76 70.57H69.07V68.16L66.02 67.21L66.23 61.33L68.23 53.88L69.07 47.26L67.7 42.43L68.33 40.01L57.31 38.54L51.74 46.84L42.92 56.24L40.61 62.49V66.53Z" fill="#808D9D"/>
<path d="M71.9001 32.35L70.3201 28.46L68.1101 27.09L68.5301 24.88V23L64.2201 25.94L61.1701 28.46L58.3301 35.85L69.0401 38.55V36.66L71.4601 35.85L72.4101 33.92L71.8801 32.34L71.9001 32.35ZM66.3601 32.07C65.8201 32.07 65.3901 31.64 65.3901 31.1C65.3901 30.56 65.8201 30.13 66.3601 30.13C66.9001 30.13 67.3301 30.56 67.3301 31.1C67.3301 31.64 66.9001 32.07 66.3601 32.07Z" fill="#808D9D"/>
</g>
<defs>
<clipPath id="clip0_1475_1184">
<rect width="42.43" height="56.08" fill="white" transform="translate(30 23)"/>
</clipPath>
</defs>
</svg>
