<svg width="102" height="102" viewBox="0 0 102 102" fill="none" xmlns="http://www.w3.org/2000/svg">
<g id="Group 541">
<g id="Group 483">
<g id="Group 481">
<g id="Group 405">
<g id="Group 403">
<rect id="Rectangle 75" x="0.5" y="0.5" width="101" height="101" fill="#0B0B0B" stroke="#0B0B0B"/>
<rect id="Rectangle 77" x="8.8335" y="8.8335" width="84.3333" height="84.3333" fill="#0B0B0B" stroke="#E0EAF7"/>
</g>
</g>
</g>
</g>
<g id="Layer_1">
<path id="Vector" d="M43.206 76.0002H60.4116L61.0938 62.3034L65.1941 57.255L66.2856 48.8003L60.8209 52.4862L54.7458 48.8003L42.1073 44.849L44.1611 40.8906L48.1178 43.8881L53.3096 41.8443L54.2 38.3018L42.1073 33.6621L34 46.7565L42.9331 59.5784L43.206 76.0002Z" fill="#808D9D"/>
<path id="Vector_2" d="M58.911 33.662L54.1285 30.8008L51.292 35.1608L56.4479 38.438L58.911 33.662Z" fill="#808D9D"/>
<path id="Vector_3" d="M60.4113 36.1357L63.5494 39.1189L57.1368 47.7099L53.4458 46.3474L60.4113 36.1357Z" fill="#808D9D"/>
<path id="Vector_4" d="M65.7397 39.9077L68.9999 44.404L61.2301 51.4962L58.9106 47.8174L65.7397 39.9077Z" fill="#808D9D"/>
<path id="Vector_5" d="M48.2543 27L52.491 29.9832L49.3458 35.2969L44.1611 33.6619L48.2543 27Z" fill="#808D9D"/>
</g>
</g>
</svg>
