<svg width="102" height="102" viewBox="0 0 102 102" fill="none" xmlns="http://www.w3.org/2000/svg">
<rect x="0.5" y="0.5" width="101" height="101" fill="#0B0B0B" stroke="#0B0B0B"/>
<rect x="8.8335" y="8.8335" width="84.3333" height="84.3333" fill="#0B0B0B" stroke="#E0EAF7"/>
<g clip-path="url(#clip0_1475_1170)">
<path d="M59.04 41.0898L67.05 44.3098L65.92 49.2698L64.7 53.8798L60.35 57.1898V68.4198H62.35L61.39 70.7598H56.35V57.2798L50.86 57.1898L43.38 53.7998L41.47 54.1398V58.4098L37.55 62.8498V68.1498L40.34 68.7598L38.86 70.7598H35.38L34.85 61.4498V55.5398L33.9 51.3798H32.77L27.02 63.4598L26 60.7598L31.9 47.7098L39.03 44.3998L51.65 44.2298L56.08 43.4398L59.04 41.0898Z" fill="#808D9D"/>
<path d="M71.8302 35.09L68.0002 32H65.3002L60.4302 35.44V38.92L67.8702 42.66L70.0902 40.22H74.6102L75.3102 36.83L71.8302 35.09ZM66.9002 36.54C66.4402 36.54 66.0602 36.16 66.0602 35.7C66.0602 35.24 66.4402 34.86 66.9002 34.86C67.3602 34.86 67.7402 35.24 67.7402 35.7C67.7402 36.16 67.3602 36.54 66.9002 36.54Z" fill="#808D9D"/>
</g>
<defs>
<clipPath id="clip0_1475_1170">
<rect width="49.31" height="38.76" fill="white" transform="translate(26 32)"/>
</clipPath>
</defs>
</svg>
