<svg width="102" height="102" viewBox="0 0 102 102" fill="none" xmlns="http://www.w3.org/2000/svg">
<rect x="0.5" y="0.5" width="101" height="101" fill="#0B0B0B" stroke="#0B0B0B"/>
<rect x="8.8335" y="8.8335" width="84.3333" height="84.3333" fill="#0B0B0B" stroke="#E0EAF7"/>
<g clip-path="url(#clip0_1475_983)">
<path d="M58.19 43.7L48.77 33L46.31 44.88L30.34 49.25L16 43.7L22.55 54.19L17.77 65.5L27.6 58.81L31.19 57.06L42.81 58.21L45.08 58.81V69.6L55.18 60.06L55.88 59.51L59.21 59.84L60.03 66.67L65.9 60.12L82.15 53.57L86.25 45.38L58.19 43.72V43.7ZM47.02 54.51L45.07 51.3L47.02 48.16L47.48 49.73L46.75 52.46L49.89 54.51H47.02ZM50.66 54.51L48.71 51.3L50.66 48.16L51.12 49.73L50.39 52.46L53.53 54.51H50.66ZM54.09 54.51L52.14 51.3L54.09 48.16L54.55 49.73L53.82 52.46L56.96 54.51H54.09ZM75.12 49.73C74.25 49.73 73.55 49.03 73.55 48.16C73.55 47.29 74.25 46.59 75.12 46.59C75.99 46.59 76.69 47.29 76.69 48.16C76.69 49.03 75.99 49.73 75.12 49.73Z" fill="#808D9D"/>
</g>
<defs>
<clipPath id="clip0_1475_983">
<rect width="70.25" height="36.59" fill="white" transform="translate(16 33)"/>
</clipPath>
</defs>
</svg>
