<svg width="102" height="102" viewBox="0 0 102 102" fill="none" xmlns="http://www.w3.org/2000/svg">
<rect x="0.5" y="0.5" width="101" height="101" fill="#0B0B0B" stroke="#0B0B0B"/>
<rect x="8.8335" y="8.8335" width="84.3333" height="84.3333" fill="#0B0B0B" stroke="#E0EAF7"/>
<g clip-path="url(#clip0_1475_1286)">
<path d="M66.8 35.91L58.21 29H40.49L35 38.48L44.04 43.35L40.5 50.57H64.24L58.04 43L66.81 35.91H66.8ZM45.41 38.15C44.83 38.15 44.35 37.68 44.35 37.09C44.35 36.5 44.82 36.03 45.41 36.03C46 36.03 46.47 36.5 46.47 37.09C46.47 37.68 46 38.15 45.41 38.15ZM55.24 38.15C54.66 38.15 54.18 37.68 54.18 37.09C54.18 36.5 54.65 36.03 55.24 36.03C55.83 36.03 56.3 36.5 56.3 37.09C56.3 37.68 55.83 38.15 55.24 38.15Z" fill="#808D9D"/>
<path d="M64.4902 56.0801L60.0502 56.6401L61.1602 52.8501L36.1602 69.8901L40.6002 69.3301L39.4902 73.1101L64.4902 56.0801Z" fill="#808D9D"/>
<path d="M36.1602 56.0801L40.6002 56.6401L39.4902 52.8501L64.4902 69.8901L60.0502 69.3301L61.1602 73.1101L36.1602 56.0801Z" fill="#808D9D"/>
</g>
<defs>
<clipPath id="clip0_1475_1286">
<rect width="31.8" height="44.11" fill="white" transform="translate(35 29)"/>
</clipPath>
</defs>
</svg>
