<svg width="102" height="102" viewBox="0 0 102 102" fill="none" xmlns="http://www.w3.org/2000/svg">
<g id="Group 545">
<g id="Group 491">
<g id="Group 489">
<g id="Group 487">
<g id="Group 485">
<g id="Group 483">
<g id="Group 481">
<g id="Group 405">
<g id="Group 403">
<rect id="Rectangle 75" x="0.5" y="0.5" width="101" height="101" fill="#0B0B0B" stroke="#0B0B0B"/>
<rect id="Rectangle 77" x="8.83301" y="8.8335" width="84.3333" height="84.3333" fill="#0B0B0B" stroke="#E0EAF7"/>
</g>
</g>
</g>
</g>
</g>
</g>
</g>
</g>
<g id="Layer_1">
<path id="Vector" d="M86.4144 50.1109L65.9853 50.2304L55.3405 38H33.0788L24.7605 48.6369L17 49.9834V62.2138L19.1433 64.9069H25.5015L26.115 57.3216L35.1663 56.2221L41.644 65.0264L67.5709 66.1259C67.5709 66.1259 67.2043 58.0547 67.2043 57.6881C67.2043 57.3216 78.0882 55.8556 78.0882 55.8556L80.7813 65.5204L88 66.1339L86.4224 50.1109H86.4144ZM34.1863 50.1906L27.0951 49.577L34.1863 41.7528V50.1906ZM36.0189 50.1906V41.7528H51.1814L53.5079 50.1906H36.0189ZM55.46 50.1906L53.9939 42.2388L60.2326 49.4575L55.46 50.1906ZM86.032 57.8953L80.7733 55.2022V52.0231L82.8529 51.5371L86.032 55.6962V57.8953Z" fill="#808D9D"/>
<path id="Vector_2" d="M27.0869 60.1743L33.5726 57.8955L36.9031 64.5804L27.9395 67.5683L27.0869 60.1743Z" fill="#808D9D"/>
<path id="Vector_3" d="M69.2285 60.1743L75.7142 57.8955L79.0447 64.5804L70.0811 67.5683L69.2285 60.1743Z" fill="#808D9D"/>
</g>
</g>
</svg>
