<svg width="102" height="102" viewBox="0 0 102 102" fill="none" xmlns="http://www.w3.org/2000/svg">
<rect x="0.5" y="0.5" width="101" height="101" fill="#0B0B0B" stroke="#0B0B0B"/>
<rect x="8.8335" y="8.8335" width="84.3333" height="84.3333" fill="#0B0B0B" stroke="#E0EAF7"/>
<g clip-path="url(#clip0_1475_969)">
<path d="M75.5601 24.96L78.5501 20V23.27L82.3701 21.09L78.9601 26.13L75.5601 24.96Z" fill="#808D9D"/>
<path d="M75.81 27.3198H68.78L63.16 32.9398L59.41 36.7998L48.99 32.9398L41.26 35.7498L40.91 47.4598L50.05 59.9898L51.1 67.0198L43.25 65.0298L33.41 58.9398L22.75 55.3098L20 62.2198L25.21 69.0098L27.2 77.2098L23.22 81.1898H25.68L30.25 78.4998L29.55 72.7598L25.45 64.9098L26.62 61.6298L30.88 63.4998L46.41 73.8098L57.42 71.9398L59.06 60.3498L50.63 48.2898L50.04 43.1398L58.94 45.7198L65.85 43.6098L73.93 38.5698L76.27 31.3098L75.8 27.3298L75.81 27.3198ZM69.81 31.9598C69.18 31.9598 68.67 31.4498 68.67 30.8198C68.67 30.1898 69.18 29.6798 69.81 29.6798C70.44 29.6798 70.95 30.1898 70.95 30.8198C70.95 31.4498 70.44 31.9598 69.81 31.9598ZM72.97 34.2398C72.34 34.2398 71.83 33.7298 71.83 33.0998C71.83 32.4698 72.34 31.9598 72.97 31.9598C73.6 31.9598 74.11 32.4698 74.11 33.0998C74.11 33.7298 73.6 34.2398 72.97 34.2398Z" fill="#808D9D"/>
</g>
<defs>
<clipPath id="clip0_1475_969">
<rect width="62.37" height="61.2" fill="white" transform="translate(20 20)"/>
</clipPath>
</defs>
</svg>
