<svg width="102" height="102" viewBox="0 0 102 102" fill="none" xmlns="http://www.w3.org/2000/svg">
<g id="Group 555">
<g id="Group 502">
<g id="Group 500">
<g id="Group 498">
<g id="Group 496">
<g id="Group 493">
<g id="Group 405">
<g id="Group 403">
<rect id="Rectangle 75" x="0.5" y="0.5" width="101" height="101" fill="#0B0B0B" stroke="#0B0B0B"/>
<rect id="Rectangle 77" x="8.83301" y="8.8335" width="84.3333" height="84.3333" fill="#0B0B0B" stroke="#E0EAF7"/>
</g>
</g>
</g>
</g>
</g>
</g>
<path id="Vector" d="M79.68 45.65L70.64 39.27L74.67 24.97L55.98 29.43L52.75 22L43.28 28.5L36.59 23.49L32.69 33.33H23L30.46 52.46L23 47.26L24.67 59.33L39.19 66.95C39.19 66.95 44.58 64.94 49.25 63.33L46.88 68.81L45.48 72.34L39.27 73.64L34.63 78.1L42.62 76.99L43.55 79.96L47.82 79.03L51.35 76.8L64.35 76.06L57.85 71.6L57.11 67.33L59.34 63.8L59.97 63.05C63.55 64.69 68.14 66.96 68.14 66.96L79.69 60.46L70.65 55.07L79.69 45.66L79.68 45.65Z" fill="#808D9D"/>
</g>
</g>
</svg>
