<svg width="102" height="102" viewBox="0 0 102 102" fill="none" xmlns="http://www.w3.org/2000/svg">
<rect x="0.5" y="0.5" width="101" height="101" fill="#0B0B0B" stroke="#0B0B0B"/>
<rect x="8.83337" y="8.83337" width="84.3333" height="84.3333" fill="#0B0B0B" stroke="#E0EAF7"/>
<g clip-path="url(#clip0_1566_1370)">
<path d="M48.7682 38.7078L48.6425 47.2029L41.9126 54.1886L40.9543 50.7144L47.4617 43.9887L45.7049 38.6976L50.9294 29.487L31.9681 44.48L33.8677 49.5331L32.1873 53.592L31.2953 53.4917L32.2536 49.1796L27.8752 53.1059L26.0096 52.8968L27.8752 47.7434L23.3914 52.6011L21.8334 52.426V65.8722L26.6654 71.7651L28.2099 67.9374L47.9612 74.3333L68.0472 66.7799L51.434 64.815L47.9544 62.24L57.5573 60.4502L58.344 53.0141L71.7443 46.9105L72.2149 38.1486L85.1667 27.6666L48.7682 38.7078Z" fill="#808D9D"/>
</g>
<defs>
<clipPath id="clip0_1566_1370">
<rect width="63.3333" height="46.6667" fill="white" transform="translate(21.8334 27.6666)"/>
</clipPath>
</defs>
</svg>
