<svg width="102" height="102" viewBox="0 0 102 102" fill="none" xmlns="http://www.w3.org/2000/svg">
<rect x="0.5" y="0.5" width="101" height="101" fill="#0B0B0B" stroke="#0B0B0B"/>
<rect x="8.8335" y="8.8335" width="84.3333" height="84.3333" fill="#0B0B0B" stroke="#E0EAF7"/>
<path d="M53.08 40.6598L40.79 38.2798L30.14 43.6998L25 53.0998L29.6 70.7498L39.04 75.4298H53.81L64.78 60.0698L60.98 46.6198L53.08 40.6598Z" fill="#808D9D"/>
<path d="M74.8298 27.09L74.0798 23L71.5498 26.37L67.4898 23L69.2698 26.17L67.1498 28.67L70.3598 28.37L70.7098 28.84C69.7698 29.47 68.3098 30.68 68.3098 30.68L69.9298 35.16L67.3998 36.13L62.1098 37.04L58.1998 33.84L56.9298 34.68L55.7598 36.47C55.7598 36.47 64.6798 43.93 64.6798 45C64.6798 46.07 68.6298 42.37 68.6298 42.37L64.0598 38.63L64.3398 38.4L68.8198 38.85L72.1298 37.1L70.9598 33.14L71.8498 30.38L74.0498 33.36L74.1398 30.19L77.5998 28.74L74.8198 27.07L74.8298 27.09Z" fill="#808D9D"/>
</svg>
