<svg width="102" height="102" viewBox="0 0 102 102" fill="none" xmlns="http://www.w3.org/2000/svg">
<g id="Group 554">
<g id="Group 502">
<g id="Group 500">
<g id="Group 498">
<g id="Group 496">
<g id="Group 493">
<g id="Group 405">
<g id="Group 403">
<rect id="Rectangle 75" x="0.5" y="0.5" width="101" height="101" fill="#0B0B0B" stroke="#0B0B0B"/>
<rect id="Rectangle 77" x="8.83301" y="8.8335" width="84.3333" height="84.3333" fill="#0B0B0B" stroke="#E0EAF7"/>
</g>
</g>
</g>
</g>
</g>
</g>
</g>
<g id="Layer_1">
<path id="Vector" d="M33.7 29.8H36.39L39.09 26.09L36.9 25L33.7 27.18V25H24.39L24.09 26.98L21.18 25L19 26.09L21.69 29.8H23.67L23.22 32.86L25.4 40.72H29.63L33.7 34.17V29.8Z" fill="#808D9D"/>
<path id="Vector_2" d="M82.01 39.5399L80.12 27.1699H72.26L40.09 29.9299L31.5 43.6099L39.07 53.7999L38.2 70.8299L36.16 75.4899L39.51 75.1999L41.4 71.1199L43 65.0099L43.44 56.9999L44.9 56.1299L45.92 64.4299L46.5 72.1399L44.75 74.7599L44.6 76.0699L48.97 75.1999L49.99 71.9999L48.97 65.2999L49.12 61.3699L48.83 56.2799L50.7 52.6399L53.78 53.0799L63.39 51.9199L70.67 49.5899L71.11 54.6799L69.36 70.1099L67.03 71.5699L67.18 73.3199L71.98 72.5899L73.87 63.4199L75.18 57.0199L74.6 51.9299L75.47 48.4399L77.36 52.7999L75.76 64.4499L75.32 71.1499L74.88 74.4999L76.63 75.2299L79.54 73.3399L80.27 65.0399L81.29 59.5099L80.27 46.5499L82.02 39.5599L82.01 39.5399ZM59.92 49.8799H51.62L44.85 41.2199L43.32 32.5599L50.09 34.3799L51.62 36.9999L56.21 36.1299L60.58 40.0599L62.55 43.7699L59.93 49.8899L59.92 49.8799ZM70.4 41.5799L66.47 40.7099L62.54 34.1599L63.85 30.6699L70.4 35.9099V41.5899V41.5799ZM72.04 35.8999L68.22 32.5499V29.1999H70.84L75.86 33.9299L72.04 35.8999Z" fill="#808D9D"/>
</g>
</g>
</svg>
