<svg width="102" height="102" viewBox="0 0 102 102" fill="none" xmlns="http://www.w3.org/2000/svg">
<rect x="0.5" y="0.5" width="101" height="101" fill="#0B0B0B" stroke="#0B0B0B"/>
<rect x="8.83301" y="8.8335" width="84.3333" height="84.3333" fill="#0B0B0B" stroke="#E0EAF7"/>
<g clip-path="url(#clip0_1301_1807)">
<path d="M75.276 24.9103H71.4124L68.8693 20.6153L45.6997 20L31.309 21.6408L31.8103 25.4653H26.7362L25 33.9829L26.1126 41.5836L33.1919 37.9159L37.6301 31.027L35.0014 27.7334L36.7254 26.0444L46.5801 22.799H63.5262L67.5732 26.4666L64.3821 30.4721L68.8081 37.361L75.8874 41.0286L77 33.4279L75.276 24.9103Z" fill="#808D9D"/>
<path d="M58.5743 36.9629L40.6011 35.5996L33.3507 51.5249L30.5264 67.0641L37.2877 70.2009L38.2536 82.0121L42.7897 72.7586L43.3155 72.9999L58.0119 71.1299L62.9148 81.1314L63.7951 70.3939L73.8088 69.1151V51.5369L58.5499 36.975L58.5743 36.9629ZM41.8605 66.2558L37.8257 62.6846L38.6816 50.1495L41.8727 40.2445H56.5447L67.8055 48.6294L70.153 64.7839L41.8605 66.2558Z" fill="#808D9D"/>
<path d="M52.7054 53.25H57.0581L52.7054 42.1265L51.0059 43.0675L52.7054 53.25Z" fill="#808D9D"/>
<path d="M52.9262 54.9272L45.7002 57.5453L44.7832 59.4394H47.8399L53.293 56.0975V55.0961" fill="#808D9D"/>
</g>
<defs>
<clipPath id="clip0_1301_1807">
<rect width="52" height="62" fill="white" transform="translate(25 20)"/>
</clipPath>
</defs>
</svg>
