<svg width="327" height="178" viewBox="0 0 327 178" fill="none" xmlns="http://www.w3.org/2000/svg">
<path d="M37.3604 11.5584L0 82.8355L122.095 178H327L176.403 0L37.3604 11.5584Z" fill="#CAD8E9"/>
<g clip-path="url(#clip0_861_4416)">
<path d="M181.01 117.577L207.375 100.836L106.961 74.8253L80.2793 58.6349L91.5106 75.9854L65.6112 59.1735L85.878 78.7785L48.1299 63.6947L79.4474 81.7759L47.8461 81.1222L78.9744 89.5579L56.2813 103.342L87.1695 94.9695L181.01 117.577Z" fill="#0B0B0B"/>
</g>
<path d="M224.973 147.336L225.393 132.006H214.179C214.221 129.15 214.347 125.538 214.515 123.354H216.909L217.371 125.622H232.911L232.491 132.006H229.677L230.139 147L224.973 147.336ZM243.65 140.868L239.408 138.894C241.214 135.24 241.592 134.316 241.592 133.476C241.592 132.678 241.046 132.258 239.618 132.006L235.418 131.25C235.46 128.898 235.628 125.538 235.796 123.228H238.19L238.526 125.244L242.012 125.664C244.952 126.042 246.128 127.47 246.128 130.704C246.128 132.846 245.246 136.416 243.65 140.868Z" fill="black"/>
<defs>
<clipPath id="clip0_861_4416">
<rect width="77.7169" height="156.481" fill="white" transform="translate(207.375 100.836) rotate(120)"/>
</clipPath>
</defs>
</svg>
