<svg width="257" height="212" viewBox="0 0 257 212" fill="none" xmlns="http://www.w3.org/2000/svg">
<path d="M62.2332 0L0 132.211L8.45142 205.062L148.668 212L257 150.713L197.84 42.4L62.2332 0Z" fill="#CAD8E9"/>
<g clip-path="url(#clip0_861_4415)">
<path d="M33 156.141V165.686L35.539 163.086L38.1187 163.063V158.676L35.5667 158.635L33 156.141Z" fill="#0B0B0B"/>
<path d="M148.433 158.635L145.881 158.676V163.063L148.461 163.086L151 165.686V156.141L148.433 158.635Z" fill="#0B0B0B"/>
<path d="M129.314 155.218H134.669L140.417 99H43.5337L49.2473 154.869L49.2832 155.218H56.5531V158.649H41.293V163.08H56.5531V166.61H62.7523L60.9189 168.459L69.3898 177L77.8608 168.459L76.029 166.61H108.35L106.517 168.459L114.988 177L123.459 168.459L121.625 166.61H129.314V163.08H142.706V158.649H129.314V155.218Z" fill="#0B0B0B"/>
</g>
<path d="M121.141 80.21L121.015 73.616C120.889 66.308 120.007 65.006 115.093 65.006H106.063C106.105 62.15 106.231 58.538 106.399 56.354H108.793L109.255 58.622H117.949C123.409 58.622 125.257 60.806 125.257 67.358C125.257 71.516 125.089 74.54 124.585 80L121.141 80.21ZM106.483 80.168L107.071 68.996H112.237L112.405 80L106.483 80.168ZM131.3 80.588V74.12L132.014 73.616C138.146 69.29 139.784 67.736 139.784 66.098C139.784 65.426 139.28 65.006 138.482 65.006H128.738C128.108 62.612 127.856 61.394 127.772 60.134L127.352 51.398L132.434 50.222C132.602 50.642 132.644 51.062 132.644 51.44C132.644 52.91 132.056 55.346 131.048 57.992V58.622H139.532C142.472 58.622 143.9 60.26 143.9 63.662C143.9 68.156 140.33 74.162 134.66 79.16L133.022 80.588H131.3ZM157.677 79.916L154.485 80.336L153.939 76.64H153.561L147.219 80.504H145.539V73.826C148.647 73.07 150.537 72.818 153.393 72.776L153.183 70.676C152.679 65.888 152.259 65.216 149.445 64.712L146.841 64.25C146.925 61.52 147.009 58.244 147.177 56.27H149.571L149.949 58.244L151.839 58.538C155.997 59.168 156.711 60.092 157.131 65.426C157.425 69.962 157.551 73.322 157.677 79.916ZM178.659 59.672C179.163 60.218 179.415 60.764 179.625 61.772C179.625 65.804 177.693 71.726 174.669 76.85C171.519 79.16 165.177 81.806 160.053 82.898V76.388C162.867 75.506 164.967 74.876 166.605 74.33C165.555 70.508 165.135 68.828 164.631 67.022C164.211 65.468 163.749 64.88 162.573 64.46L160.431 63.704L161.103 57.488L162.405 57.404L164.463 57.95C168.243 58.958 168.411 61.898 168.705 65.51L169.335 73.364C170.259 73.028 171.015 72.692 171.729 72.356C173.871 71.264 175.383 69.122 175.383 67.106C175.383 65.384 174.921 64.838 172.485 63.578L171.183 62.906L173.157 57.278H174.249C176.013 57.908 177.987 58.916 178.659 59.672Z" fill="black"/>
<defs>
<clipPath id="clip0_861_4415">
<rect width="118" height="78" fill="white" transform="translate(33 99)"/>
</clipPath>
</defs>
</svg>
